<svg width="4000" height="4000" viewBox="0 0 4000 4000" fill="none" xmlns="http://www.w3.org/2000/svg">
<path d="M1757 2029.87L1930 2029.87" stroke="white" stroke-width="100" stroke-linecap="round"/>
<path d="M1676 1879.87L1930 1879.87" stroke="white" stroke-width="100" stroke-linecap="round"/>
<path d="M1434 1733.87L1794 1733.87" stroke="white" stroke-width="100" stroke-linecap="round"/>
<path d="M1484 1586.87L1930 1586.87" stroke="white" stroke-width="100" stroke-linecap="round"/>
<path d="M1291 1438.87L1930 1438.87" stroke="white" stroke-width="100" stroke-linecap="round"/>
<path d="M1294 1291.87L1794 1291.87" stroke="white" stroke-width="100" stroke-linecap="round"/>
<path d="M1484 1146.87L1928 1146.87" stroke="white" stroke-width="100" stroke-linecap="round"/>
<path d="M1434 998.871L1794 998.871" stroke="white" stroke-width="100" stroke-linecap="round"/>
<path d="M1681 852.871L1927 852.871" stroke="white" stroke-width="100" stroke-linecap="round"/>
<path d="M1760 704.871L1928 704.871" stroke="white" stroke-width="100" stroke-linecap="round"/>
<path d="M1548 1879.87H1549" stroke="white" stroke-width="100" stroke-linecap="round"/>
<path d="M1929 1733.87H1930" stroke="white" stroke-width="100" stroke-linecap="round"/>
<path d="M1357 1586.87H1358" stroke="white" stroke-width="100" stroke-linecap="round"/>
<path d="M1928 1291.87H1929" stroke="white" stroke-width="100" stroke-linecap="round"/>
<path d="M1927 998.871H1928" stroke="white" stroke-width="100" stroke-linecap="round"/>
<path d="M1544 852.871H1545" stroke="white" stroke-width="100" stroke-linecap="round"/>
<path d="M1356 1146.87H1357" stroke="white" stroke-width="100" stroke-linecap="round"/>
<path d="M2072.65 1691.37L2072.57 1629.37L2072.08 1254.37L2072.04 1217.37C2079.59 1206.79 2090.43 1192.65 2103.39 1177.16C2103.75 1176.71 2104.11 1176.28 2104.47 1175.87C2104.11 1176.3 2103.75 1176.73 2103.39 1177.16C2089.02 1194.93 2076.59 1235.76 2072.08 1254.37L2072.57 1629.37C2079.98 1623.04 2094.06 1612.45 2106 1603.87C2112.05 1599.52 2118.25 1595.26 2124.44 1591.29C2120.72 1593.72 2103.87 1612.32 2095.86 1621.37C2080.72 1650.46 2073.3 1679.53 2072.65 1691.37Z" fill="white"/>
<path d="M2376 812.371C2339.5 766.371 2285.94 723.191 2275.5 716.871C2221 683.871 2187.5 691.496 2169.5 692.371C2095.5 705.371 2071.83 772.538 2071.5 805.371L2072.04 1217.37M2212 918.371C2212.5 915.871 2239.5 819.371 2327.5 812.371C2340.5 809.871 2381 808.871 2446.5 839.871C2508.9 876.271 2541.83 941.705 2550.5 969.872C2559.5 989.872 2574.8 1051.47 2564 1137.87M2401 1825.87C2400.14 1849.9 2395.88 1871.5 2389.26 1890.87M2525.5 1331.37C2503.83 1350.7 2460.4 1382.97 2462 1437.37C2464 1505.37 2532 1585.87 2538.5 1595.37C2545 1604.87 2593.5 1646.37 2579.5 1740.87C2565.5 1835.37 2487 1867.87 2474.5 1872.87C2464.5 1876.87 2413.51 1886.54 2389.26 1890.87M2389.26 1890.87C2357.32 1984.36 2270.56 2025.59 2247.5 2033.87C2145.5 2075.07 2078.5 2009.87 2073 1956.87L2072.65 1691.37M2072.57 1629.37L2072.65 1691.37M2072.57 1629.37C2079.98 1623.04 2094.06 1612.45 2106 1603.87M2072.57 1629.37L2072.08 1254.37M2360.5 1634.37C2284.5 1566.87 2215 1565.87 2178 1568.37C2162.9 1569.39 2143.7 1578.94 2124.5 1591.25M2072.65 1691.37C2073.3 1679.53 2080.72 1650.46 2095.86 1621.37M2106 1603.87C2102.3 1609.61 2098.92 1615.49 2095.86 1621.37M2106 1603.87C2112.07 1599.51 2118.29 1595.23 2124.5 1591.25M2095.86 1621.37C2103.91 1612.28 2120.9 1593.52 2124.5 1591.25M2072.04 1217.37L2072.08 1254.37M2072.04 1217.37C2079.8 1206.5 2091.03 1191.86 2104.47 1175.87M2401.5 1054.37C2366 1047.7 2280.7 1041.47 2223.5 1069.87C2182.96 1090 2137.18 1136.94 2104.47 1175.87M2072.08 1254.37C2076.7 1235.29 2089.65 1192.89 2104.47 1175.87" stroke="white" stroke-width="100" stroke-linecap="round"/>
<path d="M2626 1181.58C2610.64 1171.29 2576.73 1157.14 2534.5 1158.87C2506.21 1160.03 2488.59 1162.32 2476.5 1165.04C2469.41 1166.97 2462.53 1169.27 2455.92 1171.84C2450.9 1174.1 2446.79 1176.3 2441.29 1178.12C2410.44 1192.63 2386.92 1211.81 2375.81 1223.1C2375.09 1223.84 2374.36 1224.6 2373.63 1225.37C2374.29 1224.66 2375.02 1223.9 2375.81 1223.1C2407.78 1189.9 2426.25 1182.87 2440.5 1178.37C2440.77 1178.29 2441.03 1178.2 2441.29 1178.12C2446 1175.9 2450.89 1173.79 2455.92 1171.84C2461.03 1169.53 2467.09 1167.16 2476.5 1165.04C2488.59 1162.32 2506.21 1160.03 2534.5 1158.87C2576.73 1157.14 2610.64 1171.29 2626 1181.58C2626.84 1182.07 2627.8 1182.72 2628.86 1183.52C2642.05 1192.53 2647.15 1197.43 2657 1207.87C2665.42 1216.8 2687.79 1256.85 2695 1280.37C2676.5 1233.43 2643.26 1194.39 2628.86 1183.52C2627.95 1182.9 2627 1182.25 2626 1181.58Z" fill="white"/>
<path d="M2288.5 1440.37C2286.67 1405.87 2294.2 1322.67 2339 1265.87C2352.05 1249.32 2363.51 1236.06 2373.63 1225.37M2580 1639.87C2583.61 1639.87 2631.45 1593.28 2666.83 1535.37C2685.31 1505.12 2701.9 1444.77 2705.5 1413.37C2712.46 1352.69 2709.21 1326.69 2695 1280.37M2626 1181.58C2610.64 1171.29 2576.73 1157.14 2534.5 1158.87C2506.21 1160.03 2488.59 1162.32 2476.5 1165.04M2626 1181.58C2641.36 1191.88 2646.46 1196.7 2657 1207.87C2665.42 1216.8 2687.79 1256.85 2695 1280.37M2626 1181.58C2638.28 1188.68 2675.13 1229.97 2695 1280.37M2373.63 1225.37C2406.95 1190.22 2425.93 1182.97 2440.5 1178.37C2452.14 1174.7 2457.4 1169.33 2476.5 1165.04M2373.63 1225.37C2386.92 1210.98 2426.1 1178.77 2476.5 1165.04" stroke="white" stroke-width="100" stroke-linecap="round"/>
<path d="M605.8 2714.6C564.733 2714.6 527.933 2707.93 495.4 2694.6C462.867 2681.27 436.733 2661.53 417 2635.4C397.8 2609.27 387.667 2577.8 386.6 2541H532.2C534.333 2561.8 541.533 2577.8 553.8 2589C566.067 2599.67 582.067 2605 601.8 2605C622.067 2605 638.067 2600.47 649.8 2591.4C661.533 2581.8 667.4 2568.73 667.4 2552.2C667.4 2538.33 662.6 2526.87 653 2517.8C643.933 2508.73 632.467 2501.27 618.6 2495.4C605.267 2489.53 586.067 2482.87 561 2475.4C524.733 2464.2 495.133 2453 472.2 2441.8C449.267 2430.6 429.533 2414.07 413 2392.2C396.467 2370.33 388.2 2341.8 388.2 2306.6C388.2 2254.33 407.133 2213.53 445 2184.2C482.867 2154.33 532.2 2139.4 593 2139.4C654.867 2139.4 704.733 2154.33 742.6 2184.2C780.467 2213.53 800.733 2254.6 803.4 2307.4H655.4C654.333 2289.27 647.667 2275.13 635.4 2265C623.133 2254.33 607.4 2249 588.2 2249C571.667 2249 558.333 2253.53 548.2 2262.6C538.067 2271.13 533 2283.67 533 2300.2C533 2318.33 541.533 2332.47 558.6 2342.6C575.667 2352.73 602.333 2363.67 638.6 2375.4C674.867 2387.67 704.2 2399.4 726.6 2410.6C749.533 2421.8 769.267 2438.07 785.8 2459.4C802.333 2480.73 810.6 2508.2 810.6 2541.8C810.6 2573.8 802.333 2602.87 785.8 2629C769.8 2655.13 746.333 2675.93 715.4 2691.4C684.467 2706.87 647.933 2714.6 605.8 2714.6ZM963.588 2216.2C939.588 2216.2 919.854 2209.27 904.388 2195.4C889.454 2181 881.988 2163.4 881.988 2142.6C881.988 2121.27 889.454 2103.67 904.388 2089.8C919.854 2075.4 939.588 2068.2 963.588 2068.2C987.054 2068.2 1006.25 2075.4 1021.19 2089.8C1036.65 2103.67 1044.39 2121.27 1044.39 2142.6C1044.39 2163.4 1036.65 2181 1021.19 2195.4C1006.25 2209.27 987.054 2216.2 963.588 2216.2ZM1031.59 2262.6V2709H894.788V2262.6H1031.59ZM1402.73 2257.8C1454.99 2257.8 1496.59 2274.87 1527.53 2309C1558.99 2342.6 1574.73 2389 1574.73 2448.2V2709H1438.73V2466.6C1438.73 2436.73 1430.99 2413.53 1415.53 2397C1400.06 2380.47 1379.26 2372.2 1353.13 2372.2C1326.99 2372.2 1306.19 2380.47 1290.73 2397C1275.26 2413.53 1267.53 2436.73 1267.53 2466.6V2709H1130.73V2262.6H1267.53V2321.8C1281.39 2302.07 1300.06 2286.6 1323.53 2275.4C1346.99 2263.67 1373.39 2257.8 1402.73 2257.8ZM1642.59 2485C1642.59 2439.13 1651.12 2398.87 1668.19 2364.2C1685.79 2329.53 1709.52 2302.87 1739.39 2284.2C1769.25 2265.53 1802.59 2256.2 1839.39 2256.2C1870.85 2256.2 1898.32 2262.6 1921.79 2275.4C1945.79 2288.2 1964.19 2305 1976.99 2325.8V2262.6H2113.79V2709H1976.99V2645.8C1963.65 2666.6 1944.99 2683.4 1920.99 2696.2C1897.52 2709 1870.05 2715.4 1838.59 2715.4C1802.32 2715.4 1769.25 2706.07 1739.39 2687.4C1709.52 2668.2 1685.79 2641.27 1668.19 2606.6C1651.12 2571.4 1642.59 2530.87 1642.59 2485ZM1976.99 2485.8C1976.99 2451.67 1967.39 2424.73 1948.19 2405C1929.52 2385.27 1906.59 2375.4 1879.39 2375.4C1852.19 2375.4 1828.99 2385.27 1809.79 2405C1791.12 2424.2 1781.79 2450.87 1781.79 2485C1781.79 2519.13 1791.12 2546.33 1809.79 2566.6C1828.99 2586.33 1852.19 2596.2 1879.39 2596.2C1906.59 2596.2 1929.52 2586.33 1948.19 2566.6C1967.39 2546.87 1976.99 2519.93 1976.99 2485.8ZM2349.56 2325.8C2362.89 2305 2381.29 2288.2 2404.76 2275.4C2428.22 2262.6 2455.69 2256.2 2487.16 2256.2C2523.96 2256.2 2557.29 2265.53 2587.16 2284.2C2617.02 2302.87 2640.49 2329.53 2657.56 2364.2C2675.16 2398.87 2683.96 2439.13 2683.96 2485C2683.96 2530.87 2675.16 2571.4 2657.56 2606.6C2640.49 2641.27 2617.02 2668.2 2587.16 2687.4C2557.29 2706.07 2523.96 2715.4 2487.16 2715.4C2456.22 2715.4 2428.76 2709 2404.76 2696.2C2381.29 2683.4 2362.89 2666.87 2349.56 2646.6V2921.8H2212.76V2262.6H2349.56V2325.8ZM2544.76 2485C2544.76 2450.87 2535.16 2424.2 2515.96 2405C2497.29 2385.27 2474.09 2375.4 2446.36 2375.4C2419.16 2375.4 2395.96 2385.27 2376.76 2405C2358.09 2424.73 2348.76 2451.67 2348.76 2485.8C2348.76 2519.93 2358.09 2546.87 2376.76 2566.6C2395.96 2586.33 2419.16 2596.2 2446.36 2596.2C2473.56 2596.2 2496.76 2586.33 2515.96 2566.6C2535.16 2546.33 2544.76 2519.13 2544.76 2485ZM2937.33 2715.4C2898.39 2715.4 2863.73 2708.73 2833.33 2695.4C2802.93 2682.07 2778.93 2663.93 2761.33 2641C2743.73 2617.53 2733.86 2591.4 2731.73 2562.6H2866.93C2868.53 2578.07 2875.73 2590.6 2888.53 2600.2C2901.33 2609.8 2917.06 2614.6 2935.73 2614.6C2952.79 2614.6 2965.86 2611.4 2974.93 2605C2984.53 2598.07 2989.33 2589.27 2989.33 2578.6C2989.33 2565.8 2982.66 2556.47 2969.33 2550.6C2955.99 2544.2 2934.39 2537.27 2904.53 2529.8C2872.53 2522.33 2845.86 2514.6 2824.53 2506.6C2803.19 2498.07 2784.79 2485 2769.33 2467.4C2753.86 2449.27 2746.13 2425 2746.13 2394.6C2746.13 2369 2753.06 2345.8 2766.93 2325C2781.33 2303.67 2802.13 2286.87 2829.33 2274.6C2857.06 2262.33 2889.86 2256.2 2927.73 2256.2C2983.73 2256.2 3027.73 2270.07 3059.73 2297.8C3092.26 2325.53 3110.93 2362.33 3115.73 2408.2H2989.33C2987.19 2392.73 2980.26 2380.47 2968.53 2371.4C2957.33 2362.33 2942.39 2357.8 2923.73 2357.8C2907.73 2357.8 2895.46 2361 2886.93 2367.4C2878.39 2373.27 2874.13 2381.53 2874.13 2392.2C2874.13 2405 2880.79 2414.6 2894.13 2421C2907.99 2427.4 2929.33 2433.8 2958.13 2440.2C2991.19 2448.73 3018.13 2457.27 3038.93 2465.8C3059.73 2473.8 3077.86 2487.13 3093.33 2505.8C3109.33 2523.93 3117.59 2548.47 3118.13 2579.4C3118.13 2605.53 3110.66 2629 3095.73 2649.8C3081.33 2670.07 3060.26 2686.07 3032.53 2697.8C3005.33 2709.53 2973.59 2715.4 2937.33 2715.4ZM3622.62 2478.6C3622.62 2491.4 3621.82 2504.73 3620.22 2518.6H3310.62C3312.75 2546.33 3321.55 2567.67 3337.02 2582.6C3353.02 2597 3372.49 2604.2 3395.42 2604.2C3429.55 2604.2 3453.29 2589.8 3466.62 2561H3612.22C3604.75 2590.33 3591.15 2616.73 3571.42 2640.2C3552.22 2663.67 3527.95 2682.07 3498.62 2695.4C3469.29 2708.73 3436.49 2715.4 3400.22 2715.4C3356.49 2715.4 3317.55 2706.07 3283.42 2687.4C3249.29 2668.73 3222.62 2642.07 3203.42 2607.4C3184.22 2572.73 3174.62 2532.2 3174.62 2485.8C3174.62 2439.4 3183.95 2398.87 3202.62 2364.2C3221.82 2329.53 3248.49 2302.87 3282.62 2284.2C3316.75 2265.53 3355.95 2256.2 3400.22 2256.2C3443.42 2256.2 3481.82 2265.27 3515.42 2283.4C3549.02 2301.53 3575.15 2327.4 3593.82 2361C3613.02 2394.6 3622.62 2433.8 3622.62 2478.6ZM3482.62 2442.6C3482.62 2419.13 3474.62 2400.47 3458.62 2386.6C3442.62 2372.73 3422.62 2365.8 3398.62 2365.8C3375.69 2365.8 3356.22 2372.47 3340.22 2385.8C3324.75 2399.13 3315.15 2418.07 3311.42 2442.6H3482.62Z" fill="white"/>
<path d="M744.952 3259.98C727.792 3259.98 711.292 3257.23 695.452 3251.73C679.832 3246.01 667.732 3238.75 659.152 3229.95L668.722 3211.14C676.862 3219.06 687.752 3225.77 701.392 3231.27C715.252 3236.55 729.772 3239.19 744.952 3239.19C759.472 3239.19 771.242 3237.43 780.262 3233.91C789.502 3230.17 796.212 3225.22 800.392 3219.06C804.792 3212.9 806.992 3206.08 806.992 3198.6C806.992 3189.58 804.352 3182.32 799.072 3176.82C794.012 3171.32 787.302 3167.03 778.942 3163.95C770.582 3160.65 761.342 3157.79 751.222 3155.37C741.102 3152.95 730.982 3150.42 720.862 3147.78C710.742 3144.92 701.392 3141.18 692.812 3136.56C684.452 3131.94 677.632 3125.89 672.352 3118.41C667.292 3110.71 664.762 3100.7 664.762 3088.38C664.762 3076.94 667.732 3066.49 673.672 3057.03C679.832 3047.35 689.182 3039.65 701.722 3033.93C714.262 3027.99 730.322 3025.02 749.902 3025.02C762.882 3025.02 775.752 3026.89 788.512 3030.63C801.272 3034.15 812.272 3039.1 821.512 3045.48L813.262 3064.95C803.362 3058.35 792.802 3053.51 781.582 3050.43C770.582 3047.35 759.912 3045.81 749.572 3045.81C735.712 3045.81 724.272 3047.68 715.252 3051.42C706.232 3055.16 699.522 3060.22 695.122 3066.6C690.942 3072.76 688.852 3079.8 688.852 3087.72C688.852 3096.74 691.382 3104 696.442 3109.5C701.722 3115 708.542 3119.29 716.902 3122.37C725.482 3125.45 734.832 3128.2 744.952 3130.62C755.072 3133.04 765.082 3135.68 774.982 3138.54C785.102 3141.4 794.342 3145.14 802.702 3149.76C811.282 3154.16 818.102 3160.1 823.162 3167.58C828.442 3175.06 831.082 3184.85 831.082 3196.95C831.082 3208.17 828.002 3218.62 821.842 3228.3C815.682 3237.76 806.222 3245.46 793.462 3251.4C780.922 3257.12 764.752 3259.98 744.952 3259.98ZM995.169 3259.98C977.789 3259.98 961.619 3257.12 946.659 3251.4C931.919 3245.46 919.049 3237.21 908.049 3226.65C897.269 3215.87 888.799 3203.44 882.639 3189.36C876.699 3175.06 873.729 3159.44 873.729 3142.5C873.729 3125.56 876.699 3110.05 882.639 3095.97C888.799 3081.67 897.269 3069.24 908.049 3058.68C919.049 3047.9 931.919 3039.65 946.659 3033.93C961.399 3027.99 977.569 3025.02 995.169 3025.02C1012.55 3025.02 1028.61 3027.99 1043.35 3033.93C1058.09 3039.65 1070.85 3047.79 1081.63 3058.35C1092.63 3068.91 1101.1 3081.34 1107.04 3095.64C1113.2 3109.94 1116.28 3125.56 1116.28 3142.5C1116.28 3159.44 1113.2 3175.06 1107.04 3189.36C1101.1 3203.66 1092.63 3216.09 1081.63 3226.65C1070.85 3237.21 1058.09 3245.46 1043.35 3251.4C1028.61 3257.12 1012.55 3259.98 995.169 3259.98ZM995.169 3238.2C1009.03 3238.2 1021.79 3235.89 1033.45 3231.27C1045.33 3226.43 1055.56 3219.72 1064.14 3211.14C1072.94 3202.34 1079.76 3192.22 1084.6 3180.78C1089.44 3169.12 1091.86 3156.36 1091.86 3142.5C1091.86 3128.64 1089.44 3115.99 1084.6 3104.55C1079.76 3092.89 1072.94 3082.77 1064.14 3074.19C1055.56 3065.39 1045.33 3058.68 1033.45 3054.06C1021.79 3049.22 1009.03 3046.8 995.169 3046.8C981.309 3046.8 968.439 3049.22 956.559 3054.06C944.679 3058.68 934.339 3065.39 925.539 3074.19C916.959 3082.77 910.139 3092.89 905.079 3104.55C900.239 3115.99 897.819 3128.64 897.819 3142.5C897.819 3156.14 900.239 3168.79 905.079 3180.45C910.139 3192.11 916.959 3202.34 925.539 3211.14C934.339 3219.72 944.679 3226.43 956.559 3231.27C968.439 3235.89 981.309 3238.2 995.169 3238.2ZM1180.92 3258V3027H1205.34V3236.88H1334.7V3258H1180.92ZM1474.01 3259.98C1444.53 3259.98 1421.32 3251.51 1404.38 3234.57C1387.44 3217.63 1378.97 3192.55 1378.97 3159.33V3027H1403.39V3158.34C1403.39 3185.62 1409.55 3205.75 1421.87 3218.73C1434.19 3231.71 1451.57 3238.2 1474.01 3238.2C1496.67 3238.2 1514.16 3231.71 1526.48 3218.73C1538.8 3205.75 1544.96 3185.62 1544.96 3158.34V3027H1568.72V3159.33C1568.72 3192.55 1560.25 3217.63 1543.31 3234.57C1526.59 3251.51 1503.49 3259.98 1474.01 3259.98ZM1752.53 3259.98C1735.15 3259.98 1719.09 3257.12 1704.35 3251.4C1689.61 3245.46 1676.85 3237.21 1666.07 3226.65C1655.29 3216.09 1646.82 3203.66 1640.66 3189.36C1634.72 3175.06 1631.75 3159.44 1631.75 3142.5C1631.75 3125.56 1634.72 3109.94 1640.66 3095.64C1646.82 3081.34 1655.29 3068.91 1666.07 3058.35C1677.07 3047.79 1689.94 3039.65 1704.68 3033.93C1719.42 3027.99 1735.48 3025.02 1752.86 3025.02C1769.58 3025.02 1785.31 3027.88 1800.05 3033.6C1814.79 3039.1 1827.22 3047.46 1837.34 3058.68L1821.83 3074.19C1812.37 3064.51 1801.92 3057.58 1790.48 3053.4C1779.04 3049 1766.72 3046.8 1753.52 3046.8C1739.66 3046.8 1726.79 3049.22 1714.91 3054.06C1703.03 3058.68 1692.69 3065.39 1683.89 3074.19C1675.09 3082.77 1668.16 3092.89 1663.1 3104.55C1658.26 3115.99 1655.84 3128.64 1655.84 3142.5C1655.84 3156.36 1658.26 3169.12 1663.1 3180.78C1668.16 3192.22 1675.09 3202.34 1683.89 3211.14C1692.69 3219.72 1703.03 3226.43 1714.91 3231.27C1726.79 3235.89 1739.66 3238.2 1753.52 3238.2C1766.72 3238.2 1779.04 3236 1790.48 3231.6C1801.92 3227.2 1812.37 3220.16 1821.83 3210.48L1837.34 3225.99C1827.22 3237.21 1814.79 3245.68 1800.05 3251.4C1785.31 3257.12 1769.47 3259.98 1752.53 3259.98ZM1740.65 3330.6C1735.15 3330.6 1730.09 3329.94 1725.47 3328.62C1721.07 3327.3 1716.89 3325.43 1712.93 3323.01L1718.54 3310.47C1721.84 3312.45 1725.25 3313.99 1728.77 3315.09C1732.51 3316.19 1736.36 3316.74 1740.32 3316.74C1746.92 3316.74 1751.98 3315.31 1755.5 3312.45C1759.02 3309.81 1760.78 3306.07 1760.78 3301.23C1760.78 3296.83 1759.02 3293.2 1755.5 3290.34C1752.2 3287.48 1747.14 3286.05 1740.32 3286.05H1732.73L1740.65 3256.02H1754.84L1749.89 3275.16C1758.91 3275.82 1765.84 3278.57 1770.68 3283.41C1775.52 3288.47 1777.94 3294.63 1777.94 3301.89C1777.94 3310.69 1774.42 3317.62 1767.38 3322.68C1760.56 3327.96 1751.65 3330.6 1740.65 3330.6ZM1995.44 3259.98C1978.06 3259.98 1961.89 3257.12 1946.93 3251.4C1932.19 3245.46 1919.32 3237.21 1908.32 3226.65C1897.54 3215.87 1889.07 3203.44 1882.91 3189.36C1876.97 3175.06 1874 3159.44 1874 3142.5C1874 3125.56 1876.97 3110.05 1882.91 3095.97C1889.07 3081.67 1897.54 3069.24 1908.32 3058.68C1919.32 3047.9 1932.19 3039.65 1946.93 3033.93C1961.67 3027.99 1977.84 3025.02 1995.44 3025.02C2012.82 3025.02 2028.88 3027.99 2043.62 3033.93C2058.36 3039.65 2071.12 3047.79 2081.9 3058.35C2092.9 3068.91 2101.37 3081.34 2107.31 3095.64C2113.47 3109.94 2116.55 3125.56 2116.55 3142.5C2116.55 3159.44 2113.47 3175.06 2107.31 3189.36C2101.37 3203.66 2092.9 3216.09 2081.9 3226.65C2071.12 3237.21 2058.36 3245.46 2043.62 3251.4C2028.88 3257.12 2012.82 3259.98 1995.44 3259.98ZM1995.44 3238.2C2009.3 3238.2 2022.06 3235.89 2033.72 3231.27C2045.6 3226.43 2055.83 3219.72 2064.41 3211.14C2073.21 3202.34 2080.03 3192.22 2084.87 3180.78C2089.71 3169.12 2092.13 3156.36 2092.13 3142.5C2092.13 3128.64 2089.71 3115.99 2084.87 3104.55C2080.03 3092.89 2073.21 3082.77 2064.41 3074.19C2055.83 3065.39 2045.6 3058.68 2033.72 3054.06C2022.06 3049.22 2009.3 3046.8 1995.44 3046.8C1981.58 3046.8 1968.71 3049.22 1956.83 3054.06C1944.95 3058.68 1934.61 3065.39 1925.81 3074.19C1917.23 3082.77 1910.41 3092.89 1905.35 3104.55C1900.51 3115.99 1898.09 3128.64 1898.09 3142.5C1898.09 3156.14 1900.51 3168.79 1905.35 3180.45C1910.41 3192.11 1917.23 3202.34 1925.81 3211.14C1934.61 3219.72 1944.95 3226.43 1956.83 3231.27C1968.71 3235.89 1981.58 3238.2 1995.44 3238.2ZM2017.88 3006.21C2012.82 3006.21 2008.31 3005.11 2004.35 3002.91C2000.39 3000.71 1996.76 2998.18 1993.46 2995.32C1990.38 2992.24 1987.3 2989.6 1984.22 2987.4C1981.14 2984.98 1977.95 2983.77 1974.65 2983.77C1969.59 2983.77 1965.52 2985.64 1962.44 2989.38C1959.58 2993.12 1957.93 2998.29 1957.49 3004.89H1943.3C1943.74 2993.89 1946.6 2985.09 1951.88 2978.49C1957.38 2971.89 1964.42 2968.59 1973 2968.59C1978.06 2968.59 1982.57 2969.8 1986.53 2972.22C1990.71 2974.42 1994.34 2977.06 1997.42 2980.14C2000.72 2983 2003.8 2985.53 2006.66 2987.73C2009.74 2989.93 2012.93 2991.03 2016.23 2991.03C2021.29 2991.03 2025.36 2989.27 2028.44 2985.75C2031.52 2982.01 2033.17 2976.95 2033.39 2970.57H2047.58C2047.36 2981.13 2044.5 2989.71 2039 2996.31C2033.5 3002.91 2026.46 3006.21 2017.88 3006.21ZM2202.97 3130.29H2325.07V3151.08H2202.97V3130.29ZM2205.61 3236.88H2344.54V3258H2181.19V3027H2339.59V3048.12H2205.61V3236.88ZM2475.53 3259.98C2458.37 3259.98 2441.87 3257.23 2426.03 3251.73C2410.41 3246.01 2398.31 3238.75 2389.73 3229.95L2399.3 3211.14C2407.44 3219.06 2418.33 3225.77 2431.97 3231.27C2445.83 3236.55 2460.35 3239.19 2475.53 3239.19C2490.05 3239.19 2501.82 3237.43 2510.84 3233.91C2520.08 3230.17 2526.79 3225.22 2530.97 3219.06C2535.37 3212.9 2537.57 3206.08 2537.57 3198.6C2537.57 3189.58 2534.93 3182.32 2529.65 3176.82C2524.59 3171.32 2517.88 3167.03 2509.52 3163.95C2501.16 3160.65 2491.92 3157.79 2481.8 3155.37C2471.68 3152.95 2461.56 3150.42 2451.44 3147.78C2441.32 3144.92 2431.97 3141.18 2423.39 3136.56C2415.03 3131.94 2408.21 3125.89 2402.93 3118.41C2397.87 3110.71 2395.34 3100.7 2395.34 3088.38C2395.34 3076.94 2398.31 3066.49 2404.25 3057.03C2410.41 3047.35 2419.76 3039.65 2432.3 3033.93C2444.84 3027.99 2460.9 3025.02 2480.48 3025.02C2493.46 3025.02 2506.33 3026.89 2519.09 3030.63C2531.85 3034.15 2542.85 3039.1 2552.09 3045.48L2543.84 3064.95C2533.94 3058.35 2523.38 3053.51 2512.16 3050.43C2501.16 3047.35 2490.49 3045.81 2480.15 3045.81C2466.29 3045.81 2454.85 3047.68 2445.83 3051.42C2436.81 3055.16 2430.1 3060.22 2425.7 3066.6C2421.52 3072.76 2419.43 3079.8 2419.43 3087.72C2419.43 3096.74 2421.96 3104 2427.02 3109.5C2432.3 3115 2439.12 3119.29 2447.48 3122.37C2456.06 3125.45 2465.41 3128.2 2475.53 3130.62C2485.65 3133.04 2495.66 3135.68 2505.56 3138.54C2515.68 3141.4 2524.92 3145.14 2533.28 3149.76C2541.86 3154.16 2548.68 3160.1 2553.74 3167.58C2559.02 3175.06 2561.66 3184.85 2561.66 3196.95C2561.66 3208.17 2558.58 3218.62 2552.42 3228.3C2546.26 3237.76 2536.8 3245.46 2524.04 3251.4C2511.5 3257.12 2495.33 3259.98 2475.53 3259.98ZM2777.14 3259.98C2762.18 3259.98 2748.87 3257.56 2737.21 3252.72C2725.55 3247.66 2716.31 3240.73 2709.49 3231.93C2702.89 3223.13 2699.59 3212.9 2699.59 3201.24C2699.59 3191.34 2701.79 3182.32 2706.19 3174.18C2710.59 3165.82 2717.63 3157.68 2727.31 3149.76C2737.21 3141.62 2750.3 3133.15 2766.58 3124.35C2780.44 3116.65 2791.22 3110.05 2798.92 3104.55C2806.84 3098.83 2812.45 3093.44 2815.75 3088.38C2819.05 3083.1 2820.7 3077.49 2820.7 3071.55C2820.7 3062.97 2817.73 3056.04 2811.79 3050.76C2806.07 3045.48 2797.82 3042.84 2787.04 3042.84C2775.38 3042.84 2766.36 3045.81 2759.98 3051.75C2753.6 3057.47 2750.41 3064.95 2750.41 3074.19C2750.41 3078.81 2751.07 3083.21 2752.39 3087.39C2753.93 3091.57 2756.68 3096.19 2760.64 3101.25C2764.82 3106.31 2770.54 3112.69 2777.8 3120.39L2899.9 3246.12L2886.37 3261.63L2758.99 3130.62C2751.29 3122.48 2745.13 3115.44 2740.51 3109.5C2736.11 3103.34 2733.03 3097.51 2731.27 3092.01C2729.51 3086.51 2728.63 3080.68 2728.63 3074.52C2728.63 3064.62 2730.94 3056.04 2735.56 3048.78C2740.4 3041.3 2747.22 3035.58 2756.02 3031.62C2764.82 3027.44 2775.16 3025.35 2787.04 3025.35C2797.82 3025.35 2807.17 3027.22 2815.09 3030.96C2823.23 3034.48 2829.5 3039.65 2833.9 3046.47C2838.52 3053.29 2840.83 3061.54 2840.83 3071.22C2840.83 3079.58 2838.74 3087.39 2834.56 3094.65C2830.6 3101.91 2824 3109.06 2814.76 3116.1C2805.52 3122.92 2792.98 3130.62 2777.14 3139.2C2763.28 3146.9 2752.28 3153.94 2744.14 3160.32C2736.22 3166.7 2730.61 3172.97 2727.31 3179.13C2724.01 3185.07 2722.36 3191.67 2722.36 3198.93C2722.36 3207.29 2724.67 3214.66 2729.29 3221.04C2734.13 3227.2 2740.73 3232.04 2749.09 3235.56C2757.67 3238.86 2767.46 3240.51 2778.46 3240.51C2793.86 3240.51 2807.61 3237.32 2819.71 3230.94C2831.81 3224.56 2841.93 3214.88 2850.07 3201.9C2858.43 3188.92 2864.48 3172.64 2868.22 3153.06L2887.03 3159C2882.85 3181 2875.7 3199.48 2865.58 3214.44C2855.46 3229.4 2842.92 3240.73 2827.96 3248.43C2813 3256.13 2796.06 3259.98 2777.14 3259.98ZM3047.95 3258V3027H3072.37V3258H3047.95ZM3120.47 3258L3226.07 3027H3250.16L3355.76 3258H3330.02L3233 3041.19H3242.9L3145.88 3258H3120.47ZM3162.05 3196.29L3169.31 3176.49H3303.62L3310.88 3196.29H3162.05Z" fill="white"/>
</svg>
