<svg width="6000" height="2000" viewBox="0 0 6000 2000" fill="none" xmlns="http://www.w3.org/2000/svg">
<path d="M1019 1666.87L1192 1666.87" stroke="white" stroke-width="100" stroke-linecap="round"/>
<path d="M938 1516.87L1192 1516.87" stroke="white" stroke-width="100" stroke-linecap="round"/>
<path d="M696 1370.87L1056 1370.87" stroke="white" stroke-width="100" stroke-linecap="round"/>
<path d="M746 1223.87L1192 1223.87" stroke="white" stroke-width="100" stroke-linecap="round"/>
<path d="M553 1075.87L1192 1075.87" stroke="white" stroke-width="100" stroke-linecap="round"/>
<path d="M556 928.871L1056 928.871" stroke="white" stroke-width="100" stroke-linecap="round"/>
<path d="M746 783.871L1190 783.871" stroke="white" stroke-width="100" stroke-linecap="round"/>
<path d="M696 635.871L1056 635.871" stroke="white" stroke-width="100" stroke-linecap="round"/>
<path d="M943 489.871L1189 489.871" stroke="white" stroke-width="100" stroke-linecap="round"/>
<path d="M1022 341.871L1190 341.871" stroke="white" stroke-width="100" stroke-linecap="round"/>
<path d="M810 1516.87H811" stroke="white" stroke-width="100" stroke-linecap="round"/>
<path d="M1191 1370.87H1192" stroke="white" stroke-width="100" stroke-linecap="round"/>
<path d="M619 1223.87H620" stroke="white" stroke-width="100" stroke-linecap="round"/>
<path d="M1190 928.871H1191" stroke="white" stroke-width="100" stroke-linecap="round"/>
<path d="M1189 635.871H1190" stroke="white" stroke-width="100" stroke-linecap="round"/>
<path d="M806 489.871H807" stroke="white" stroke-width="100" stroke-linecap="round"/>
<path d="M618 783.871H619" stroke="white" stroke-width="100" stroke-linecap="round"/>
<path d="M1638 449.371C1601.5 403.371 1547.94 360.191 1537.5 353.871C1483 320.871 1449.5 328.496 1431.5 329.371C1357.5 342.371 1333.83 409.538 1333.5 442.371L1334.04 854.371M1474 555.371C1474.5 552.871 1501.5 456.371 1589.5 449.371C1602.5 446.871 1643 445.871 1708.5 476.871C1770.9 513.271 1803.83 578.705 1812.5 606.872C1821.5 626.872 1836.8 688.472 1826 774.872M1663 1462.87C1662.14 1486.9 1657.88 1508.5 1651.26 1527.87M1787.5 968.371C1765.83 987.705 1722.4 1019.97 1724 1074.37C1726 1142.37 1794 1222.87 1800.5 1232.37C1807 1241.87 1855.5 1283.37 1841.5 1377.87C1827.5 1472.37 1749 1504.87 1736.5 1509.87C1726.5 1513.87 1675.51 1523.54 1651.26 1527.87M1651.26 1527.87C1619.32 1621.36 1532.56 1662.59 1509.5 1670.87C1407.5 1712.07 1340.5 1646.87 1335 1593.87L1334.65 1328.37M1334.57 1266.37L1334.65 1328.37M1334.57 1266.37C1341.98 1260.04 1356.06 1249.45 1368 1240.87M1334.57 1266.37L1334.08 891.371M1622.5 1271.37C1546.5 1203.87 1477 1202.87 1440 1205.37C1424.9 1206.39 1405.7 1215.94 1386.5 1228.25M1334.65 1328.37C1335.3 1316.53 1342.72 1287.46 1357.86 1258.37M1368 1240.87C1364.3 1246.61 1360.92 1252.49 1357.86 1258.37M1368 1240.87C1374.07 1236.51 1380.29 1232.23 1386.5 1228.25M1357.86 1258.37C1365.91 1249.28 1382.9 1230.52 1386.5 1228.25M1334.04 854.371L1334.08 891.371M1334.04 854.371C1341.8 843.501 1353.03 828.862 1366.47 812.871M1663.5 691.371C1628 684.705 1542.7 678.471 1485.5 706.871C1444.96 727.002 1399.18 773.945 1366.47 812.871M1334.08 891.371C1338.7 872.294 1351.65 829.886 1366.47 812.871" stroke="white" stroke-width="100" stroke-linecap="round"/>
<path d="M1550.5 1077.37C1548.67 1042.87 1556.2 959.671 1601 902.871C1614.05 886.32 1625.51 873.056 1635.63 862.371M1842 1276.87C1845.61 1276.87 1893.45 1230.28 1928.83 1172.37C1947.31 1142.12 1963.9 1081.77 1967.5 1050.37C1974.46 989.688 1971.21 963.686 1957 917.371M1888 818.584C1872.64 808.288 1838.73 794.136 1796.5 795.871C1768.21 797.034 1750.59 799.323 1738.5 802.039M1888 818.584C1903.36 828.88 1908.46 833.703 1919 844.871C1927.42 853.796 1949.79 893.852 1957 917.371M1888 818.584C1900.28 825.68 1937.13 866.971 1957 917.371M1635.63 862.371C1668.95 827.22 1687.93 819.973 1702.5 815.371C1714.14 811.696 1719.4 806.333 1738.5 802.039M1635.63 862.371C1648.92 847.983 1688.1 815.774 1738.5 802.039" stroke="white" stroke-width="100" stroke-linecap="round"/>
<path d="M2404.8 1056.6C2363.73 1056.6 2326.93 1049.93 2294.4 1036.6C2261.87 1023.27 2235.73 1003.53 2216 977.4C2196.8 951.267 2186.67 919.8 2185.6 883H2331.2C2333.33 903.8 2340.53 919.8 2352.8 931C2365.07 941.667 2381.07 947 2400.8 947C2421.07 947 2437.07 942.467 2448.8 933.4C2460.53 923.8 2466.4 910.733 2466.4 894.2C2466.4 880.333 2461.6 868.867 2452 859.8C2442.93 850.733 2431.47 843.267 2417.6 837.4C2404.27 831.533 2385.07 824.867 2360 817.4C2323.73 806.2 2294.13 795 2271.2 783.8C2248.27 772.6 2228.53 756.067 2212 734.2C2195.47 712.333 2187.2 683.8 2187.2 648.6C2187.2 596.333 2206.13 555.533 2244 526.2C2281.87 496.333 2331.2 481.4 2392 481.4C2453.87 481.4 2503.73 496.333 2541.6 526.2C2579.47 555.533 2599.73 596.6 2602.4 649.4H2454.4C2453.33 631.267 2446.67 617.133 2434.4 607C2422.13 596.333 2406.4 591 2387.2 591C2370.67 591 2357.33 595.533 2347.2 604.6C2337.07 613.133 2332 625.667 2332 642.2C2332 660.333 2340.53 674.467 2357.6 684.6C2374.67 694.733 2401.33 705.667 2437.6 717.4C2473.87 729.667 2503.2 741.4 2525.6 752.6C2548.53 763.8 2568.27 780.067 2584.8 801.4C2601.33 822.733 2609.6 850.2 2609.6 883.8C2609.6 915.8 2601.33 944.867 2584.8 971C2568.8 997.133 2545.33 1017.93 2514.4 1033.4C2483.47 1048.87 2446.93 1056.6 2404.8 1056.6ZM2762.59 558.2C2738.59 558.2 2718.85 551.267 2703.39 537.4C2688.45 523 2680.99 505.4 2680.99 484.6C2680.99 463.267 2688.45 445.667 2703.39 431.8C2718.85 417.4 2738.59 410.2 2762.59 410.2C2786.05 410.2 2805.25 417.4 2820.19 431.8C2835.65 445.667 2843.39 463.267 2843.39 484.6C2843.39 505.4 2835.65 523 2820.19 537.4C2805.25 551.267 2786.05 558.2 2762.59 558.2ZM2830.59 604.6V1051H2693.79V604.6H2830.59ZM3201.73 599.8C3253.99 599.8 3295.59 616.867 3326.53 651C3357.99 684.6 3373.73 731 3373.73 790.2V1051H3237.73V808.6C3237.73 778.733 3229.99 755.533 3214.53 739C3199.06 722.467 3178.26 714.2 3152.13 714.2C3125.99 714.2 3105.19 722.467 3089.73 739C3074.26 755.533 3066.53 778.733 3066.53 808.6V1051H2929.73V604.6H3066.53V663.8C3080.39 644.067 3099.06 628.6 3122.53 617.4C3145.99 605.667 3172.39 599.8 3201.73 599.8ZM3441.59 827C3441.59 781.133 3450.12 740.867 3467.19 706.2C3484.79 671.533 3508.52 644.867 3538.39 626.2C3568.25 607.533 3601.59 598.2 3638.39 598.2C3669.85 598.2 3697.32 604.6 3720.79 617.4C3744.79 630.2 3763.19 647 3775.99 667.8V604.6H3912.79V1051H3775.99V987.8C3762.65 1008.6 3743.99 1025.4 3719.99 1038.2C3696.52 1051 3669.05 1057.4 3637.59 1057.4C3601.32 1057.4 3568.25 1048.07 3538.39 1029.4C3508.52 1010.2 3484.79 983.267 3467.19 948.6C3450.12 913.4 3441.59 872.867 3441.59 827ZM3775.99 827.8C3775.99 793.667 3766.39 766.733 3747.19 747C3728.52 727.267 3705.59 717.4 3678.39 717.4C3651.19 717.4 3627.99 727.267 3608.79 747C3590.12 766.2 3580.79 792.867 3580.79 827C3580.79 861.133 3590.12 888.333 3608.79 908.6C3627.99 928.333 3651.19 938.2 3678.39 938.2C3705.59 938.2 3728.52 928.333 3747.19 908.6C3766.39 888.867 3775.99 861.933 3775.99 827.8ZM4148.56 667.8C4161.89 647 4180.29 630.2 4203.76 617.4C4227.22 604.6 4254.69 598.2 4286.16 598.2C4322.96 598.2 4356.29 607.533 4386.16 626.2C4416.02 644.867 4439.49 671.533 4456.56 706.2C4474.16 740.867 4482.96 781.133 4482.96 827C4482.96 872.867 4474.16 913.4 4456.56 948.6C4439.49 983.267 4416.02 1010.2 4386.16 1029.4C4356.29 1048.07 4322.96 1057.4 4286.16 1057.4C4255.22 1057.4 4227.76 1051 4203.76 1038.2C4180.29 1025.4 4161.89 1008.87 4148.56 988.6V1263.8H4011.76V604.6H4148.56V667.8ZM4343.76 827C4343.76 792.867 4334.16 766.2 4314.96 747C4296.29 727.267 4273.09 717.4 4245.36 717.4C4218.16 717.4 4194.96 727.267 4175.76 747C4157.09 766.733 4147.76 793.667 4147.76 827.8C4147.76 861.933 4157.09 888.867 4175.76 908.6C4194.96 928.333 4218.16 938.2 4245.36 938.2C4272.56 938.2 4295.76 928.333 4314.96 908.6C4334.16 888.333 4343.76 861.133 4343.76 827ZM4736.33 1057.4C4697.39 1057.4 4662.73 1050.73 4632.33 1037.4C4601.93 1024.07 4577.93 1005.93 4560.33 983C4542.73 959.533 4532.86 933.4 4530.73 904.6H4665.93C4667.53 920.067 4674.73 932.6 4687.53 942.2C4700.33 951.8 4716.06 956.6 4734.73 956.6C4751.79 956.6 4764.86 953.4 4773.93 947C4783.53 940.067 4788.33 931.267 4788.33 920.6C4788.33 907.8 4781.66 898.467 4768.33 892.6C4754.99 886.2 4733.39 879.267 4703.53 871.8C4671.53 864.333 4644.86 856.6 4623.53 848.6C4602.19 840.067 4583.79 827 4568.33 809.4C4552.86 791.267 4545.13 767 4545.13 736.6C4545.13 711 4552.06 687.8 4565.93 667C4580.33 645.667 4601.13 628.867 4628.33 616.6C4656.06 604.333 4688.86 598.2 4726.73 598.2C4782.73 598.2 4826.73 612.067 4858.73 639.8C4891.26 667.533 4909.93 704.333 4914.73 750.2H4788.33C4786.19 734.733 4779.26 722.467 4767.53 713.4C4756.33 704.333 4741.39 699.8 4722.73 699.8C4706.73 699.8 4694.46 703 4685.93 709.4C4677.39 715.267 4673.13 723.533 4673.13 734.2C4673.13 747 4679.79 756.6 4693.13 763C4706.99 769.4 4728.33 775.8 4757.13 782.2C4790.19 790.733 4817.13 799.267 4837.93 807.8C4858.73 815.8 4876.86 829.133 4892.33 847.8C4908.33 865.933 4916.59 890.467 4917.13 921.4C4917.13 947.533 4909.66 971 4894.73 991.8C4880.33 1012.07 4859.26 1028.07 4831.53 1039.8C4804.33 1051.53 4772.59 1057.4 4736.33 1057.4ZM5421.62 820.6C5421.62 833.4 5420.82 846.733 5419.22 860.6H5109.62C5111.75 888.333 5120.55 909.667 5136.02 924.6C5152.02 939 5171.49 946.2 5194.42 946.2C5228.55 946.2 5252.29 931.8 5265.62 903H5411.22C5403.75 932.333 5390.15 958.733 5370.42 982.2C5351.22 1005.67 5326.95 1024.07 5297.62 1037.4C5268.29 1050.73 5235.49 1057.4 5199.22 1057.4C5155.49 1057.4 5116.55 1048.07 5082.42 1029.4C5048.29 1010.73 5021.62 984.067 5002.42 949.4C4983.22 914.733 4973.62 874.2 4973.62 827.8C4973.62 781.4 4982.95 740.867 5001.62 706.2C5020.82 671.533 5047.49 644.867 5081.62 626.2C5115.75 607.533 5154.95 598.2 5199.22 598.2C5242.42 598.2 5280.82 607.267 5314.42 625.4C5348.02 643.533 5374.15 669.4 5392.82 703C5412.02 736.6 5421.62 775.8 5421.62 820.6ZM5281.62 784.6C5281.62 761.133 5273.62 742.467 5257.62 728.6C5241.62 714.733 5221.62 707.8 5197.62 707.8C5174.69 707.8 5155.22 714.467 5139.22 727.8C5123.75 741.133 5114.15 760.067 5110.42 784.6H5281.62Z" fill="white"/>
<path d="M2543.95 1601.98C2526.79 1601.98 2510.29 1599.23 2494.45 1593.73C2478.83 1588.01 2466.73 1580.75 2458.15 1571.95L2467.72 1553.14C2475.86 1561.06 2486.75 1567.77 2500.39 1573.27C2514.25 1578.55 2528.77 1581.19 2543.95 1581.19C2558.47 1581.19 2570.24 1579.43 2579.26 1575.91C2588.5 1572.17 2595.21 1567.22 2599.39 1561.06C2603.79 1554.9 2605.99 1548.08 2605.99 1540.6C2605.99 1531.58 2603.35 1524.32 2598.07 1518.82C2593.01 1513.32 2586.3 1509.03 2577.94 1505.95C2569.58 1502.65 2560.34 1499.79 2550.22 1497.37C2540.1 1494.95 2529.98 1492.42 2519.86 1489.78C2509.74 1486.92 2500.39 1483.18 2491.81 1478.56C2483.45 1473.94 2476.63 1467.89 2471.35 1460.41C2466.29 1452.71 2463.76 1442.7 2463.76 1430.38C2463.76 1418.94 2466.73 1408.49 2472.67 1399.03C2478.83 1389.35 2488.18 1381.65 2500.72 1375.93C2513.26 1369.99 2529.32 1367.02 2548.9 1367.02C2561.88 1367.02 2574.75 1368.89 2587.51 1372.63C2600.27 1376.15 2611.27 1381.1 2620.51 1387.48L2612.26 1406.95C2602.36 1400.35 2591.8 1395.51 2580.58 1392.43C2569.58 1389.35 2558.91 1387.81 2548.57 1387.81C2534.71 1387.81 2523.27 1389.68 2514.25 1393.42C2505.23 1397.16 2498.52 1402.22 2494.12 1408.6C2489.94 1414.76 2487.85 1421.8 2487.85 1429.72C2487.85 1438.74 2490.38 1446 2495.44 1451.5C2500.72 1457 2507.54 1461.29 2515.9 1464.37C2524.48 1467.45 2533.83 1470.2 2543.95 1472.62C2554.07 1475.04 2564.08 1477.68 2573.98 1480.54C2584.1 1483.4 2593.34 1487.14 2601.7 1491.76C2610.28 1496.16 2617.1 1502.1 2622.16 1509.58C2627.44 1517.06 2630.08 1526.85 2630.08 1538.95C2630.08 1550.17 2627 1560.62 2620.84 1570.3C2614.68 1579.76 2605.22 1587.46 2592.46 1593.4C2579.92 1599.12 2563.75 1601.98 2543.95 1601.98ZM2794.17 1601.98C2776.79 1601.98 2760.62 1599.12 2745.66 1593.4C2730.92 1587.46 2718.05 1579.21 2707.05 1568.65C2696.27 1557.87 2687.8 1545.44 2681.64 1531.36C2675.7 1517.06 2672.73 1501.44 2672.73 1484.5C2672.73 1467.56 2675.7 1452.05 2681.64 1437.97C2687.8 1423.67 2696.27 1411.24 2707.05 1400.68C2718.05 1389.9 2730.92 1381.65 2745.66 1375.93C2760.4 1369.99 2776.57 1367.02 2794.17 1367.02C2811.55 1367.02 2827.61 1369.99 2842.35 1375.93C2857.09 1381.65 2869.85 1389.79 2880.63 1400.35C2891.63 1410.91 2900.1 1423.34 2906.04 1437.64C2912.2 1451.94 2915.28 1467.56 2915.28 1484.5C2915.28 1501.44 2912.2 1517.06 2906.04 1531.36C2900.1 1545.66 2891.63 1558.09 2880.63 1568.65C2869.85 1579.21 2857.09 1587.46 2842.35 1593.4C2827.61 1599.12 2811.55 1601.98 2794.17 1601.98ZM2794.17 1580.2C2808.03 1580.2 2820.79 1577.89 2832.45 1573.27C2844.33 1568.43 2854.56 1561.72 2863.14 1553.14C2871.94 1544.34 2878.76 1534.22 2883.6 1522.78C2888.44 1511.12 2890.86 1498.36 2890.86 1484.5C2890.86 1470.64 2888.44 1457.99 2883.6 1446.55C2878.76 1434.89 2871.94 1424.77 2863.14 1416.19C2854.56 1407.39 2844.33 1400.68 2832.45 1396.06C2820.79 1391.22 2808.03 1388.8 2794.17 1388.8C2780.31 1388.8 2767.44 1391.22 2755.56 1396.06C2743.68 1400.68 2733.34 1407.39 2724.54 1416.19C2715.96 1424.77 2709.14 1434.89 2704.08 1446.55C2699.24 1457.99 2696.82 1470.64 2696.82 1484.5C2696.82 1498.14 2699.24 1510.79 2704.08 1522.45C2709.14 1534.11 2715.96 1544.34 2724.54 1553.14C2733.34 1561.72 2743.68 1568.43 2755.56 1573.27C2767.44 1577.89 2780.31 1580.2 2794.17 1580.2ZM2979.92 1600V1369H3004.34V1578.88H3133.7V1600H2979.92ZM3273.01 1601.98C3243.53 1601.98 3220.32 1593.51 3203.38 1576.57C3186.44 1559.63 3177.97 1534.55 3177.97 1501.33V1369H3202.39V1500.34C3202.39 1527.62 3208.55 1547.75 3220.87 1560.73C3233.19 1573.71 3250.57 1580.2 3273.01 1580.2C3295.67 1580.2 3313.16 1573.71 3325.48 1560.73C3337.8 1547.75 3343.96 1527.62 3343.96 1500.34V1369H3367.72V1501.33C3367.72 1534.55 3359.25 1559.63 3342.31 1576.57C3325.59 1593.51 3302.49 1601.98 3273.01 1601.98ZM3551.53 1601.98C3534.15 1601.98 3518.09 1599.12 3503.35 1593.4C3488.61 1587.46 3475.85 1579.21 3465.07 1568.65C3454.29 1558.09 3445.82 1545.66 3439.66 1531.36C3433.72 1517.06 3430.75 1501.44 3430.75 1484.5C3430.75 1467.56 3433.72 1451.94 3439.66 1437.64C3445.82 1423.34 3454.29 1410.91 3465.07 1400.35C3476.07 1389.79 3488.94 1381.65 3503.68 1375.93C3518.42 1369.99 3534.48 1367.02 3551.86 1367.02C3568.58 1367.02 3584.31 1369.88 3599.05 1375.6C3613.79 1381.1 3626.22 1389.46 3636.34 1400.68L3620.83 1416.19C3611.37 1406.51 3600.92 1399.58 3589.48 1395.4C3578.04 1391 3565.72 1388.8 3552.52 1388.8C3538.66 1388.8 3525.79 1391.22 3513.91 1396.06C3502.03 1400.68 3491.69 1407.39 3482.89 1416.19C3474.09 1424.77 3467.16 1434.89 3462.1 1446.55C3457.26 1457.99 3454.84 1470.64 3454.84 1484.5C3454.84 1498.36 3457.26 1511.12 3462.1 1522.78C3467.16 1534.22 3474.09 1544.34 3482.89 1553.14C3491.69 1561.72 3502.03 1568.43 3513.91 1573.27C3525.79 1577.89 3538.66 1580.2 3552.52 1580.2C3565.72 1580.2 3578.04 1578 3589.48 1573.6C3600.92 1569.2 3611.37 1562.16 3620.83 1552.48L3636.34 1567.99C3626.22 1579.21 3613.79 1587.68 3599.05 1593.4C3584.31 1599.12 3568.47 1601.98 3551.53 1601.98ZM3539.65 1672.6C3534.15 1672.6 3529.09 1671.94 3524.47 1670.62C3520.07 1669.3 3515.89 1667.43 3511.93 1665.01L3517.54 1652.47C3520.84 1654.45 3524.25 1655.99 3527.77 1657.09C3531.51 1658.19 3535.36 1658.74 3539.32 1658.74C3545.92 1658.74 3550.98 1657.31 3554.5 1654.45C3558.02 1651.81 3559.78 1648.07 3559.78 1643.23C3559.78 1638.83 3558.02 1635.2 3554.5 1632.34C3551.2 1629.48 3546.14 1628.05 3539.32 1628.05H3531.73L3539.65 1598.02H3553.84L3548.89 1617.16C3557.91 1617.82 3564.84 1620.57 3569.68 1625.41C3574.52 1630.47 3576.94 1636.63 3576.94 1643.89C3576.94 1652.69 3573.42 1659.62 3566.38 1664.68C3559.56 1669.96 3550.65 1672.6 3539.65 1672.6ZM3794.44 1601.98C3777.06 1601.98 3760.89 1599.12 3745.93 1593.4C3731.19 1587.46 3718.32 1579.21 3707.32 1568.65C3696.54 1557.87 3688.07 1545.44 3681.91 1531.36C3675.97 1517.06 3673 1501.44 3673 1484.5C3673 1467.56 3675.97 1452.05 3681.91 1437.97C3688.07 1423.67 3696.54 1411.24 3707.32 1400.68C3718.32 1389.9 3731.19 1381.65 3745.93 1375.93C3760.67 1369.99 3776.84 1367.02 3794.44 1367.02C3811.82 1367.02 3827.88 1369.99 3842.62 1375.93C3857.36 1381.65 3870.12 1389.79 3880.9 1400.35C3891.9 1410.91 3900.37 1423.34 3906.31 1437.64C3912.47 1451.94 3915.55 1467.56 3915.55 1484.5C3915.55 1501.44 3912.47 1517.06 3906.31 1531.36C3900.37 1545.66 3891.9 1558.09 3880.9 1568.65C3870.12 1579.21 3857.36 1587.46 3842.62 1593.4C3827.88 1599.12 3811.82 1601.98 3794.44 1601.98ZM3794.44 1580.2C3808.3 1580.2 3821.06 1577.89 3832.72 1573.27C3844.6 1568.43 3854.83 1561.72 3863.41 1553.14C3872.21 1544.34 3879.03 1534.22 3883.87 1522.78C3888.71 1511.12 3891.13 1498.36 3891.13 1484.5C3891.13 1470.64 3888.71 1457.99 3883.87 1446.55C3879.03 1434.89 3872.21 1424.77 3863.41 1416.19C3854.83 1407.39 3844.6 1400.68 3832.72 1396.06C3821.06 1391.22 3808.3 1388.8 3794.44 1388.8C3780.58 1388.8 3767.71 1391.22 3755.83 1396.06C3743.95 1400.68 3733.61 1407.39 3724.81 1416.19C3716.23 1424.77 3709.41 1434.89 3704.35 1446.55C3699.51 1457.99 3697.09 1470.64 3697.09 1484.5C3697.09 1498.14 3699.51 1510.79 3704.35 1522.45C3709.41 1534.11 3716.23 1544.34 3724.81 1553.14C3733.61 1561.72 3743.95 1568.43 3755.83 1573.27C3767.71 1577.89 3780.58 1580.2 3794.44 1580.2ZM3816.88 1348.21C3811.82 1348.21 3807.31 1347.11 3803.35 1344.91C3799.39 1342.71 3795.76 1340.18 3792.46 1337.32C3789.38 1334.24 3786.3 1331.6 3783.22 1329.4C3780.14 1326.98 3776.95 1325.77 3773.65 1325.77C3768.59 1325.77 3764.52 1327.64 3761.44 1331.38C3758.58 1335.12 3756.93 1340.29 3756.49 1346.89H3742.3C3742.74 1335.89 3745.6 1327.09 3750.88 1320.49C3756.38 1313.89 3763.42 1310.59 3772 1310.59C3777.06 1310.59 3781.57 1311.8 3785.53 1314.22C3789.71 1316.42 3793.34 1319.06 3796.42 1322.14C3799.72 1325 3802.8 1327.53 3805.66 1329.73C3808.74 1331.93 3811.93 1333.03 3815.23 1333.03C3820.29 1333.03 3824.36 1331.27 3827.44 1327.75C3830.52 1324.01 3832.17 1318.95 3832.39 1312.57H3846.58C3846.36 1323.13 3843.5 1331.71 3838 1338.31C3832.5 1344.91 3825.46 1348.21 3816.88 1348.21ZM4001.97 1472.29H4124.07V1493.08H4001.97V1472.29ZM4004.61 1578.88H4143.54V1600H3980.19V1369H4138.59V1390.12H4004.61V1578.88ZM4274.53 1601.98C4257.37 1601.98 4240.87 1599.23 4225.03 1593.73C4209.41 1588.01 4197.31 1580.75 4188.73 1571.95L4198.3 1553.14C4206.44 1561.06 4217.33 1567.77 4230.97 1573.27C4244.83 1578.55 4259.35 1581.19 4274.53 1581.19C4289.05 1581.19 4300.82 1579.43 4309.84 1575.91C4319.08 1572.17 4325.79 1567.22 4329.97 1561.06C4334.37 1554.9 4336.57 1548.08 4336.57 1540.6C4336.57 1531.58 4333.93 1524.32 4328.65 1518.82C4323.59 1513.32 4316.88 1509.03 4308.52 1505.95C4300.16 1502.65 4290.92 1499.79 4280.8 1497.37C4270.68 1494.95 4260.56 1492.42 4250.44 1489.78C4240.32 1486.92 4230.97 1483.18 4222.39 1478.56C4214.03 1473.94 4207.21 1467.89 4201.93 1460.41C4196.87 1452.71 4194.34 1442.7 4194.34 1430.38C4194.34 1418.94 4197.31 1408.49 4203.25 1399.03C4209.41 1389.35 4218.76 1381.65 4231.3 1375.93C4243.84 1369.99 4259.9 1367.02 4279.48 1367.02C4292.46 1367.02 4305.33 1368.89 4318.09 1372.63C4330.85 1376.15 4341.85 1381.1 4351.09 1387.48L4342.84 1406.95C4332.94 1400.35 4322.38 1395.51 4311.16 1392.43C4300.16 1389.35 4289.49 1387.81 4279.15 1387.81C4265.29 1387.81 4253.85 1389.68 4244.83 1393.42C4235.81 1397.16 4229.1 1402.22 4224.7 1408.6C4220.52 1414.76 4218.43 1421.8 4218.43 1429.72C4218.43 1438.74 4220.96 1446 4226.02 1451.5C4231.3 1457 4238.12 1461.29 4246.48 1464.37C4255.06 1467.45 4264.41 1470.2 4274.53 1472.62C4284.65 1475.04 4294.66 1477.68 4304.56 1480.54C4314.68 1483.4 4323.92 1487.14 4332.28 1491.76C4340.86 1496.16 4347.68 1502.1 4352.74 1509.58C4358.02 1517.06 4360.66 1526.85 4360.66 1538.95C4360.66 1550.17 4357.58 1560.62 4351.42 1570.3C4345.26 1579.76 4335.8 1587.46 4323.04 1593.4C4310.5 1599.12 4294.33 1601.98 4274.53 1601.98ZM4576.14 1601.98C4561.18 1601.98 4547.87 1599.56 4536.21 1594.72C4524.55 1589.66 4515.31 1582.73 4508.49 1573.93C4501.89 1565.13 4498.59 1554.9 4498.59 1543.24C4498.59 1533.34 4500.79 1524.32 4505.19 1516.18C4509.59 1507.82 4516.63 1499.68 4526.31 1491.76C4536.21 1483.62 4549.3 1475.15 4565.58 1466.35C4579.44 1458.65 4590.22 1452.05 4597.92 1446.55C4605.84 1440.83 4611.45 1435.44 4614.75 1430.38C4618.05 1425.1 4619.7 1419.49 4619.7 1413.55C4619.7 1404.97 4616.73 1398.04 4610.79 1392.76C4605.07 1387.48 4596.82 1384.84 4586.04 1384.84C4574.38 1384.84 4565.36 1387.81 4558.98 1393.75C4552.6 1399.47 4549.41 1406.95 4549.41 1416.19C4549.41 1420.81 4550.07 1425.21 4551.39 1429.39C4552.93 1433.57 4555.68 1438.19 4559.64 1443.25C4563.82 1448.31 4569.54 1454.69 4576.8 1462.39L4698.9 1588.12L4685.37 1603.63L4557.99 1472.62C4550.29 1464.48 4544.13 1457.44 4539.51 1451.5C4535.11 1445.34 4532.03 1439.51 4530.27 1434.01C4528.51 1428.51 4527.63 1422.68 4527.63 1416.52C4527.63 1406.62 4529.94 1398.04 4534.56 1390.78C4539.4 1383.3 4546.22 1377.58 4555.02 1373.62C4563.82 1369.44 4574.16 1367.35 4586.04 1367.35C4596.82 1367.35 4606.17 1369.22 4614.09 1372.96C4622.23 1376.48 4628.5 1381.65 4632.9 1388.47C4637.52 1395.29 4639.83 1403.54 4639.83 1413.22C4639.83 1421.58 4637.74 1429.39 4633.56 1436.65C4629.6 1443.91 4623 1451.06 4613.76 1458.1C4604.52 1464.92 4591.98 1472.62 4576.14 1481.2C4562.28 1488.9 4551.28 1495.94 4543.14 1502.32C4535.22 1508.7 4529.61 1514.97 4526.31 1521.13C4523.01 1527.07 4521.36 1533.67 4521.36 1540.93C4521.36 1549.29 4523.67 1556.66 4528.29 1563.04C4533.13 1569.2 4539.73 1574.04 4548.09 1577.56C4556.67 1580.86 4566.46 1582.51 4577.46 1582.51C4592.86 1582.51 4606.61 1579.32 4618.71 1572.94C4630.81 1566.56 4640.93 1556.88 4649.07 1543.9C4657.43 1530.92 4663.48 1514.64 4667.22 1495.06L4686.03 1501C4681.85 1523 4674.7 1541.48 4664.58 1556.44C4654.46 1571.4 4641.92 1582.73 4626.96 1590.43C4612 1598.13 4595.06 1601.98 4576.14 1601.98ZM4846.95 1600V1369H4871.37V1600H4846.95ZM4919.47 1600L5025.07 1369H5049.16L5154.76 1600H5129.02L5032 1383.19H5041.9L4944.88 1600H4919.47ZM4961.05 1538.29L4968.31 1518.49H5102.62L5109.88 1538.29H4961.05Z" fill="white"/>
</svg>
