<svg width="3448" height="3513" viewBox="0 0 3448 3513" fill="none" xmlns="http://www.w3.org/2000/svg">
<path d="M1172.5 3355.96L1565.1 3355.96" stroke="#141C4D" stroke-width="230" stroke-linecap="round"/>
<path d="M988.689 2992.86L1565.1 2992.86" stroke="#141C4D" stroke-width="230" stroke-linecap="round"/>
<path d="M439.513 2639.44L1256.47 2639.44" stroke="#141C4D" stroke-width="230" stroke-linecap="round"/>
<path d="M552.979 2283.6L1565.1 2283.6" stroke="#141C4D" stroke-width="230" stroke-linecap="round"/>
<path d="M115 1925.34L1565.1 1925.34" stroke="#141C4D" stroke-width="230" stroke-linecap="round"/>
<path d="M121.808 1569.51L1256.47 1569.51" stroke="#141C4D" stroke-width="230" stroke-linecap="round"/>
<path d="M552.979 1218.51L1560.56 1218.51" stroke="#141C4D" stroke-width="230" stroke-linecap="round"/>
<path d="M439.513 860.252L1256.47 860.252" stroke="#141C4D" stroke-width="230" stroke-linecap="round"/>
<path d="M1000.04 506.835L1558.29 506.836" stroke="#141C4D" stroke-width="230" stroke-linecap="round"/>
<path d="M1179.31 148.577L1560.56 148.577" stroke="#141C4D" stroke-width="230" stroke-linecap="round"/>
<path d="M698.216 2992.86H700.486" stroke="#141C4D" stroke-width="230" stroke-linecap="round"/>
<path d="M1562.83 2639.44H1565.1" stroke="#141C4D" stroke-width="230" stroke-linecap="round"/>
<path d="M264.775 2283.6H267.045" stroke="#141C4D" stroke-width="230" stroke-linecap="round"/>
<path d="M1560.56 1569.51H1562.83" stroke="#141C4D" stroke-width="230" stroke-linecap="round"/>
<path d="M1558.29 860.252H1560.56" stroke="#141C4D" stroke-width="230" stroke-linecap="round"/>
<path d="M689.139 506.835H691.408" stroke="#141C4D" stroke-width="230" stroke-linecap="round"/>
<path d="M262.506 1218.51H264.775" stroke="#141C4D" stroke-width="230" stroke-linecap="round"/>
<path d="M2577.22 408.8C2494.39 297.449 2372.83 192.922 2349.15 177.626C2225.47 97.7436 2149.45 116.202 2108.6 118.32C1940.67 149.788 1886.96 312.376 1886.21 391.855L1887.43 1389.17M2205.05 665.39C2206.18 659.338 2267.45 425.744 2467.15 408.8C2496.66 402.748 2588.56 400.327 2737.2 475.368C2878.81 563.48 2953.55 721.872 2973.21 790.054C2993.64 838.468 3028.36 987.58 3003.85 1196.73M2633.95 2862.14C2632 2920.3 2622.33 2972.61 2607.31 3019.49M2916.48 1665.12C2867.31 1711.92 2768.75 1790.03 2772.38 1921.71C2776.92 2086.32 2931.23 2281.18 2945.98 2304.18C2960.73 2327.18 3070.79 2427.63 3039.02 2656.39C3007.25 2885.14 2829.11 2963.81 2800.75 2975.91C2778.05 2985.6 2662.33 3009 2607.31 3019.49M2607.31 3019.49C2534.83 3245.8 2337.93 3345.59 2285.61 3365.64C2054.14 3465.37 1902.09 3307.55 1889.61 3179.25L1888.83 2536.56M1888.64 2386.48L1888.83 2536.56M1888.64 2386.48C1905.45 2371.16 1937.41 2345.52 1964.5 2324.75M1888.64 2386.48L1887.53 1478.73M2542.04 2398.58C2369.57 2235.19 2211.86 2232.77 2127.89 2238.82C2093.62 2241.29 2050.04 2264.42 2006.48 2294.21M1888.83 2536.56C1890.3 2507.91 1907.14 2437.52 1941.5 2367.12M1964.5 2324.75C1956.1 2338.65 1948.44 2352.88 1941.5 2367.12M1964.5 2324.75C1978.28 2314.19 1992.38 2303.85 2006.48 2294.21M1941.5 2367.12C1959.75 2345.1 1998.31 2299.69 2006.48 2294.21M1887.43 1389.17L1887.53 1478.73M1887.43 1389.17C1905.04 1362.85 1930.53 1327.42 1961.03 1288.71M2635.08 994.6C2554.52 978.462 2360.95 963.373 2231.14 1032.12C2139.14 1080.85 2035.26 1194.48 1961.03 1288.71M1887.53 1478.73C1898.02 1432.55 1927.39 1329.9 1961.03 1288.71" stroke="#141C4D" stroke-width="230" stroke-linecap="round"/>
<path d="M2378.65 1928.98C2374.49 1845.46 2391.58 1644.06 2493.25 1506.57C2522.88 1466.5 2548.86 1434.4 2571.84 1408.53M3040.16 2411.9C3048.36 2411.9 3156.9 2299.11 3237.19 2158.94C3279.14 2085.7 3316.78 1939.63 3324.96 1863.62C3340.76 1716.72 3333.37 1653.78 3301.13 1541.67M3144.55 1302.54C3109.68 1277.62 3032.75 1243.36 2936.9 1247.56C2872.71 1250.37 2832.71 1255.91 2805.28 1262.49M3144.55 1302.54C3179.41 1327.46 3190.99 1339.14 3214.9 1366.17C3234 1387.78 3284.76 1484.74 3301.13 1541.67M3144.55 1302.54C3172.41 1319.72 3256.05 1419.67 3301.13 1541.67M2571.84 1408.53C2647.45 1323.44 2690.52 1305.9 2723.59 1294.76C2750 1285.87 2761.93 1272.88 2805.28 1262.49M2571.84 1408.53C2602 1373.7 2690.91 1295.74 2805.28 1262.49" stroke="#141C4D" stroke-width="230" stroke-linecap="round"/>
</svg>
