<svg width="4000" height="4000" viewBox="0 0 4000 4000" fill="none" xmlns="http://www.w3.org/2000/svg">
<path d="M1448.5 3599.96L1841.1 3599.96" stroke="white" stroke-width="230" stroke-linecap="round"/>
<path d="M1264.69 3236.86L1841.1 3236.86" stroke="white" stroke-width="230" stroke-linecap="round"/>
<path d="M715.513 2883.44L1532.47 2883.44" stroke="white" stroke-width="230" stroke-linecap="round"/>
<path d="M828.979 2527.6L1841.1 2527.6" stroke="white" stroke-width="230" stroke-linecap="round"/>
<path d="M391 2169.34L1841.1 2169.34" stroke="white" stroke-width="230" stroke-linecap="round"/>
<path d="M397.808 1813.51L1532.47 1813.51" stroke="white" stroke-width="230" stroke-linecap="round"/>
<path d="M828.979 1462.51L1836.56 1462.51" stroke="white" stroke-width="230" stroke-linecap="round"/>
<path d="M715.513 1104.25L1532.47 1104.25" stroke="white" stroke-width="230" stroke-linecap="round"/>
<path d="M1276.04 750.835L1834.29 750.836" stroke="white" stroke-width="230" stroke-linecap="round"/>
<path d="M1455.31 392.577L1836.56 392.577" stroke="white" stroke-width="230" stroke-linecap="round"/>
<path d="M974.216 3236.86H976.486" stroke="white" stroke-width="230" stroke-linecap="round"/>
<path d="M1838.83 2883.44H1841.1" stroke="white" stroke-width="230" stroke-linecap="round"/>
<path d="M540.775 2527.6H543.045" stroke="white" stroke-width="230" stroke-linecap="round"/>
<path d="M1836.56 1813.51H1838.83" stroke="white" stroke-width="230" stroke-linecap="round"/>
<path d="M1834.29 1104.25H1836.56" stroke="white" stroke-width="230" stroke-linecap="round"/>
<path d="M965.139 750.835H967.408" stroke="white" stroke-width="230" stroke-linecap="round"/>
<path d="M538.506 1462.51H540.775" stroke="white" stroke-width="230" stroke-linecap="round"/>
<path d="M2853.22 652.8C2770.39 541.449 2648.83 436.922 2625.15 421.626C2501.47 341.744 2425.45 360.202 2384.6 362.32C2216.67 393.788 2162.96 556.376 2162.21 635.855L2163.43 1633.17M2481.05 909.39C2482.18 903.338 2543.45 669.744 2743.15 652.8C2772.66 646.748 2864.56 644.327 3013.2 719.368C3154.81 807.48 3229.55 965.872 3249.21 1034.05C3269.64 1082.47 3304.36 1231.58 3279.85 1440.73M2909.95 3106.14C2908 3164.3 2898.33 3216.61 2883.31 3263.49M3192.48 1909.12C3143.31 1955.92 3044.75 2034.03 3048.38 2165.71C3052.92 2330.32 3207.23 2525.18 3221.98 2548.18C3236.73 2571.18 3346.79 2671.63 3315.02 2900.39C3283.25 3129.14 3105.11 3207.81 3076.75 3219.91C3054.05 3229.6 2938.33 3253 2883.31 3263.49M2883.31 3263.49C2810.83 3489.8 2613.93 3589.59 2561.61 3609.64C2330.14 3709.37 2178.09 3551.55 2165.61 3423.25L2164.83 2780.56M2164.64 2630.48L2164.83 2780.56M2164.64 2630.48C2181.45 2615.16 2213.41 2589.52 2240.5 2568.75M2164.64 2630.48L2163.53 1722.73M2818.04 2642.58C2645.57 2479.19 2487.86 2476.77 2403.89 2482.82C2369.62 2485.29 2326.04 2508.42 2282.48 2538.21M2164.83 2780.56C2166.3 2751.91 2183.14 2681.52 2217.5 2611.12M2240.5 2568.75C2232.1 2582.65 2224.44 2596.88 2217.5 2611.12M2240.5 2568.75C2254.28 2558.19 2268.38 2547.85 2282.48 2538.21M2217.5 2611.12C2235.75 2589.1 2274.31 2543.69 2282.48 2538.21M2163.43 1633.17L2163.53 1722.73M2163.43 1633.17C2181.04 1606.85 2206.53 1571.42 2237.03 1532.71M2911.08 1238.6C2830.52 1222.46 2636.95 1207.37 2507.14 1276.12C2415.14 1324.85 2311.26 1438.48 2237.03 1532.71M2163.53 1722.73C2174.02 1676.55 2203.39 1573.9 2237.03 1532.71" stroke="white" stroke-width="230" stroke-linecap="round"/>
<path d="M2654.65 2172.98C2650.49 2089.46 2667.58 1888.06 2769.25 1750.57C2798.88 1710.5 2824.86 1678.4 2847.84 1652.53M3316.16 2655.9C3324.36 2655.9 3432.9 2543.11 3513.19 2402.94C3555.14 2329.7 3592.78 2183.63 3600.96 2107.62C3616.76 1960.72 3609.37 1897.78 3577.13 1785.67M3420.55 1546.54C3385.68 1521.62 3308.75 1487.36 3212.9 1491.56C3148.71 1494.37 3108.71 1499.91 3081.28 1506.49M3420.55 1546.54C3455.41 1571.46 3466.99 1583.14 3490.9 1610.17C3510 1631.78 3560.76 1728.74 3577.13 1785.67M3420.55 1546.54C3448.41 1563.72 3532.05 1663.67 3577.13 1785.67M2847.84 1652.53C2923.45 1567.44 2966.52 1549.9 2999.59 1538.76C3026 1529.87 3037.93 1516.88 3081.28 1506.49M2847.84 1652.53C2878 1617.7 2966.91 1539.74 3081.28 1506.49" stroke="white" stroke-width="230" stroke-linecap="round"/>
</svg>
