<svg width="3294" height="2703" viewBox="0 0 3294 2703" fill="none" xmlns="http://www.w3.org/2000/svg">
<path d="M1404 1388.87L1577 1388.87" stroke="#141C4D" stroke-width="100" stroke-linecap="round"/>
<path d="M1323 1238.87L1577 1238.87" stroke="#141C4D" stroke-width="100" stroke-linecap="round"/>
<path d="M1081 1092.87L1441 1092.87" stroke="#141C4D" stroke-width="100" stroke-linecap="round"/>
<path d="M1131 945.871L1577 945.871" stroke="#141C4D" stroke-width="100" stroke-linecap="round"/>
<path d="M938 797.871L1577 797.871" stroke="#141C4D" stroke-width="100" stroke-linecap="round"/>
<path d="M941 650.871L1441 650.871" stroke="#141C4D" stroke-width="100" stroke-linecap="round"/>
<path d="M1131 505.871L1575 505.871" stroke="#141C4D" stroke-width="100" stroke-linecap="round"/>
<path d="M1081 357.871L1441 357.871" stroke="#141C4D" stroke-width="100" stroke-linecap="round"/>
<path d="M1328 211.871L1574 211.871" stroke="#141C4D" stroke-width="100" stroke-linecap="round"/>
<path d="M1407 63.8713L1575 63.8713" stroke="#141C4D" stroke-width="100" stroke-linecap="round"/>
<path d="M1195 1238.87H1196" stroke="#141C4D" stroke-width="100" stroke-linecap="round"/>
<path d="M1576 1092.87H1577" stroke="#141C4D" stroke-width="100" stroke-linecap="round"/>
<path d="M1004 945.871H1005" stroke="#141C4D" stroke-width="100" stroke-linecap="round"/>
<path d="M1575 650.871H1576" stroke="#141C4D" stroke-width="100" stroke-linecap="round"/>
<path d="M1574 357.871H1575" stroke="#141C4D" stroke-width="100" stroke-linecap="round"/>
<path d="M1191 211.871H1192" stroke="#141C4D" stroke-width="100" stroke-linecap="round"/>
<path d="M1003 505.871H1004" stroke="#141C4D" stroke-width="100" stroke-linecap="round"/>
<path d="M1719.65 1050.37L1719.57 988.371L1719.08 613.371L1719.04 576.371C1726.59 565.792 1737.43 551.646 1750.39 536.156C1750.75 535.713 1751.11 535.285 1751.47 534.871C1751.11 535.301 1750.75 535.729 1750.39 536.156C1736.02 553.934 1723.59 594.758 1719.08 613.371L1719.57 988.371C1726.98 982.042 1741.06 971.449 1753 962.871C1759.05 958.521 1765.25 954.262 1771.44 950.289C1767.72 952.718 1750.87 971.324 1742.86 980.371C1727.72 1009.46 1720.3 1038.53 1719.65 1050.37Z" fill="#141C4D"/>
<path d="M2023 171.371C1986.5 125.371 1932.94 82.1905 1922.5 75.8713C1868 42.8712 1834.5 50.4964 1816.5 51.3715C1742.5 64.3713 1718.83 131.538 1718.5 164.371L1719.04 576.371M1859 277.371C1859.5 274.871 1886.5 178.371 1974.5 171.371C1987.5 168.871 2028 167.871 2093.5 198.871C2155.9 235.271 2188.83 300.705 2197.5 328.872C2206.5 348.872 2221.8 410.472 2211 496.872M2048 1184.87C2047.14 1208.9 2042.88 1230.5 2036.26 1249.87M2172.5 690.371C2150.83 709.705 2107.4 741.971 2109 796.371C2111 864.371 2179 944.871 2185.5 954.371C2192 963.871 2240.5 1005.37 2226.5 1099.87C2212.5 1194.37 2134 1226.87 2121.5 1231.87C2111.5 1235.87 2060.51 1245.54 2036.26 1249.87M2036.26 1249.87C2004.32 1343.36 1917.56 1384.59 1894.5 1392.87C1792.5 1434.07 1725.5 1368.87 1720 1315.87L1719.65 1050.37M1719.57 988.371L1719.65 1050.37M1719.57 988.371C1726.98 982.041 1741.06 971.449 1753 962.871M1719.57 988.371L1719.08 613.371M2007.5 993.371C1931.5 925.871 1862 924.871 1825 927.371C1809.9 928.392 1790.7 937.945 1771.5 950.251M1719.65 1050.37C1720.3 1038.53 1727.72 1009.46 1742.86 980.371M1753 962.871C1749.3 968.61 1745.92 974.491 1742.86 980.371M1753 962.871C1759.07 958.507 1765.29 954.235 1771.5 950.251M1742.86 980.371C1750.91 971.275 1767.9 952.517 1771.5 950.251M1719.04 576.371L1719.08 613.371M1719.04 576.371C1726.8 565.501 1738.03 550.862 1751.47 534.871M2048.5 413.371C2013 406.705 1927.7 400.471 1870.5 428.871C1829.96 449.002 1784.18 495.945 1751.47 534.871M1719.08 613.371C1723.7 594.294 1736.65 551.886 1751.47 534.871" stroke="#141C4D" stroke-width="100" stroke-linecap="round"/>
<path d="M2273 540.584C2257.64 530.288 2223.73 516.136 2181.5 517.871C2153.21 519.034 2135.59 521.323 2123.5 524.039C2116.41 525.972 2109.53 528.272 2102.92 530.836C2097.9 533.102 2093.79 535.3 2088.29 537.116C2057.44 551.629 2033.92 570.812 2022.81 582.097C2022.09 582.842 2021.36 583.6 2020.63 584.371C2021.29 583.656 2022.02 582.896 2022.81 582.097C2054.78 548.904 2073.25 541.872 2087.5 537.371C2087.77 537.287 2088.03 537.202 2088.29 537.116C2093 534.899 2097.89 532.791 2102.92 530.836C2108.03 528.531 2114.09 526.155 2123.5 524.039C2135.59 521.323 2153.21 519.034 2181.5 517.871C2223.73 516.136 2257.64 530.288 2273 540.584C2273.84 541.071 2274.8 541.719 2275.86 542.521C2289.05 551.532 2294.15 556.427 2304 566.871C2312.42 575.796 2334.79 615.852 2342 639.371C2323.5 592.43 2290.26 553.391 2275.86 542.521C2274.95 541.896 2274 541.252 2273 540.584Z" fill="#141C4D"/>
<path d="M1935.5 799.371C1933.67 764.871 1941.2 681.671 1986 624.871C1999.05 608.32 2010.51 595.056 2020.63 584.371M2227 998.871C2230.61 998.871 2278.45 952.278 2313.83 894.371C2332.31 864.116 2348.9 803.772 2352.5 772.371C2359.46 711.688 2356.21 685.686 2342 639.371M2273 540.584C2257.64 530.288 2223.73 516.136 2181.5 517.871C2153.21 519.034 2135.59 521.323 2123.5 524.039M2273 540.584C2288.36 550.88 2293.46 555.703 2304 566.871C2312.42 575.796 2334.79 615.852 2342 639.371M2273 540.584C2285.28 547.68 2322.13 588.971 2342 639.371M2020.63 584.371C2053.95 549.22 2072.93 541.973 2087.5 537.371C2099.14 533.696 2104.4 528.333 2123.5 524.039M2020.63 584.371C2033.92 569.983 2073.1 537.774 2123.5 524.039" stroke="#141C4D" stroke-width="100" stroke-linecap="round"/>
<path d="M252.8 2073.6C211.733 2073.6 174.933 2066.93 142.4 2053.6C109.867 2040.27 83.7333 2020.53 64 1994.4C44.8 1968.27 34.6667 1936.8 33.6 1900H179.2C181.333 1920.8 188.533 1936.8 200.8 1948C213.067 1958.67 229.067 1964 248.8 1964C269.067 1964 285.067 1959.47 296.8 1950.4C308.533 1940.8 314.4 1927.73 314.4 1911.2C314.4 1897.33 309.6 1885.87 300 1876.8C290.933 1867.73 279.467 1860.27 265.6 1854.4C252.267 1848.53 233.067 1841.87 208 1834.4C171.733 1823.2 142.133 1812 119.2 1800.8C96.2667 1789.6 76.5333 1773.07 60 1751.2C43.4667 1729.33 35.2 1700.8 35.2 1665.6C35.2 1613.33 54.1333 1572.53 92 1543.2C129.867 1513.33 179.2 1498.4 240 1498.4C301.867 1498.4 351.733 1513.33 389.6 1543.2C427.467 1572.53 447.733 1613.6 450.4 1666.4H302.4C301.333 1648.27 294.667 1634.13 282.4 1624C270.133 1613.33 254.4 1608 235.2 1608C218.667 1608 205.333 1612.53 195.2 1621.6C185.067 1630.13 180 1642.67 180 1659.2C180 1677.33 188.533 1691.47 205.6 1701.6C222.667 1711.73 249.333 1722.67 285.6 1734.4C321.867 1746.67 351.2 1758.4 373.6 1769.6C396.533 1780.8 416.267 1797.07 432.8 1818.4C449.333 1839.73 457.6 1867.2 457.6 1900.8C457.6 1932.8 449.333 1961.87 432.8 1988C416.8 2014.13 393.333 2034.93 362.4 2050.4C331.467 2065.87 294.933 2073.6 252.8 2073.6ZM610.588 1575.2C586.588 1575.2 566.854 1568.27 551.388 1554.4C536.454 1540 528.988 1522.4 528.988 1501.6C528.988 1480.27 536.454 1462.67 551.388 1448.8C566.854 1434.4 586.588 1427.2 610.588 1427.2C634.054 1427.2 653.254 1434.4 668.188 1448.8C683.654 1462.67 691.388 1480.27 691.388 1501.6C691.388 1522.4 683.654 1540 668.188 1554.4C653.254 1568.27 634.054 1575.2 610.588 1575.2ZM678.588 1621.6V2068H541.788V1621.6H678.588ZM1049.73 1616.8C1101.99 1616.8 1143.59 1633.87 1174.53 1668C1205.99 1701.6 1221.73 1748 1221.73 1807.2V2068H1085.73V1825.6C1085.73 1795.73 1077.99 1772.53 1062.53 1756C1047.06 1739.47 1026.26 1731.2 1000.13 1731.2C973.992 1731.2 953.192 1739.47 937.725 1756C922.258 1772.53 914.525 1795.73 914.525 1825.6V2068H777.725V1621.6H914.525V1680.8C928.392 1661.07 947.058 1645.6 970.525 1634.4C993.992 1622.67 1020.39 1616.8 1049.73 1616.8ZM1289.59 1844C1289.59 1798.13 1298.12 1757.87 1315.19 1723.2C1332.79 1688.53 1356.52 1661.87 1386.39 1643.2C1416.25 1624.53 1449.59 1615.2 1486.39 1615.2C1517.85 1615.2 1545.32 1621.6 1568.79 1634.4C1592.79 1647.2 1611.19 1664 1623.99 1684.8V1621.6H1760.79V2068H1623.99V2004.8C1610.65 2025.6 1591.99 2042.4 1567.99 2055.2C1544.52 2068 1517.05 2074.4 1485.59 2074.4C1449.32 2074.4 1416.25 2065.07 1386.39 2046.4C1356.52 2027.2 1332.79 2000.27 1315.19 1965.6C1298.12 1930.4 1289.59 1889.87 1289.59 1844ZM1623.99 1844.8C1623.99 1810.67 1614.39 1783.73 1595.19 1764C1576.52 1744.27 1553.59 1734.4 1526.39 1734.4C1499.19 1734.4 1475.99 1744.27 1456.79 1764C1438.12 1783.2 1428.79 1809.87 1428.79 1844C1428.79 1878.13 1438.12 1905.33 1456.79 1925.6C1475.99 1945.33 1499.19 1955.2 1526.39 1955.2C1553.59 1955.2 1576.52 1945.33 1595.19 1925.6C1614.39 1905.87 1623.99 1878.93 1623.99 1844.8ZM1996.56 1684.8C2009.89 1664 2028.29 1647.2 2051.76 1634.4C2075.22 1621.6 2102.69 1615.2 2134.16 1615.2C2170.96 1615.2 2204.29 1624.53 2234.16 1643.2C2264.02 1661.87 2287.49 1688.53 2304.56 1723.2C2322.16 1757.87 2330.96 1798.13 2330.96 1844C2330.96 1889.87 2322.16 1930.4 2304.56 1965.6C2287.49 2000.27 2264.02 2027.2 2234.16 2046.4C2204.29 2065.07 2170.96 2074.4 2134.16 2074.4C2103.22 2074.4 2075.76 2068 2051.76 2055.2C2028.29 2042.4 2009.89 2025.87 1996.56 2005.6V2280.8H1859.76V1621.6H1996.56V1684.8ZM2191.76 1844C2191.76 1809.87 2182.16 1783.2 2162.96 1764C2144.29 1744.27 2121.09 1734.4 2093.36 1734.4C2066.16 1734.4 2042.96 1744.27 2023.76 1764C2005.09 1783.73 1995.76 1810.67 1995.76 1844.8C1995.76 1878.93 2005.09 1905.87 2023.76 1925.6C2042.96 1945.33 2066.16 1955.2 2093.36 1955.2C2120.56 1955.2 2143.76 1945.33 2162.96 1925.6C2182.16 1905.33 2191.76 1878.13 2191.76 1844ZM2584.33 2074.4C2545.39 2074.4 2510.73 2067.73 2480.33 2054.4C2449.93 2041.07 2425.93 2022.93 2408.33 2000C2390.73 1976.53 2380.86 1950.4 2378.73 1921.6H2513.93C2515.53 1937.07 2522.73 1949.6 2535.53 1959.2C2548.33 1968.8 2564.06 1973.6 2582.73 1973.6C2599.79 1973.6 2612.86 1970.4 2621.93 1964C2631.53 1957.07 2636.33 1948.27 2636.33 1937.6C2636.33 1924.8 2629.66 1915.47 2616.33 1909.6C2602.99 1903.2 2581.39 1896.27 2551.53 1888.8C2519.53 1881.33 2492.86 1873.6 2471.53 1865.6C2450.19 1857.07 2431.79 1844 2416.33 1826.4C2400.86 1808.27 2393.13 1784 2393.13 1753.6C2393.13 1728 2400.06 1704.8 2413.93 1684C2428.33 1662.67 2449.13 1645.87 2476.33 1633.6C2504.06 1621.33 2536.86 1615.2 2574.73 1615.2C2630.73 1615.2 2674.73 1629.07 2706.73 1656.8C2739.26 1684.53 2757.93 1721.33 2762.73 1767.2H2636.33C2634.19 1751.73 2627.26 1739.47 2615.53 1730.4C2604.33 1721.33 2589.39 1716.8 2570.73 1716.8C2554.73 1716.8 2542.46 1720 2533.93 1726.4C2525.39 1732.27 2521.13 1740.53 2521.13 1751.2C2521.13 1764 2527.79 1773.6 2541.13 1780C2554.99 1786.4 2576.33 1792.8 2605.13 1799.2C2638.19 1807.73 2665.13 1816.27 2685.93 1824.8C2706.73 1832.8 2724.86 1846.13 2740.33 1864.8C2756.33 1882.93 2764.59 1907.47 2765.13 1938.4C2765.13 1964.53 2757.66 1988 2742.73 2008.8C2728.33 2029.07 2707.26 2045.07 2679.53 2056.8C2652.33 2068.53 2620.59 2074.4 2584.33 2074.4ZM3269.62 1837.6C3269.62 1850.4 3268.82 1863.73 3267.22 1877.6H2957.62C2959.75 1905.33 2968.55 1926.67 2984.02 1941.6C3000.02 1956 3019.49 1963.2 3042.42 1963.2C3076.55 1963.2 3100.29 1948.8 3113.62 1920H3259.22C3251.75 1949.33 3238.15 1975.73 3218.42 1999.2C3199.22 2022.67 3174.95 2041.07 3145.62 2054.4C3116.29 2067.73 3083.49 2074.4 3047.22 2074.4C3003.49 2074.4 2964.55 2065.07 2930.42 2046.4C2896.29 2027.73 2869.62 2001.07 2850.42 1966.4C2831.22 1931.73 2821.62 1891.2 2821.62 1844.8C2821.62 1798.4 2830.95 1757.87 2849.62 1723.2C2868.82 1688.53 2895.49 1661.87 2929.62 1643.2C2963.75 1624.53 3002.95 1615.2 3047.22 1615.2C3090.42 1615.2 3128.82 1624.27 3162.42 1642.4C3196.02 1660.53 3222.15 1686.4 3240.82 1720C3260.02 1753.6 3269.62 1792.8 3269.62 1837.6ZM3129.62 1801.6C3129.62 1778.13 3121.62 1759.47 3105.62 1745.6C3089.62 1731.73 3069.62 1724.8 3045.62 1724.8C3022.69 1724.8 3003.22 1731.47 2987.22 1744.8C2971.75 1758.13 2962.15 1777.07 2958.42 1801.6H3129.62Z" fill="#141C4D"/>
<path d="M391.952 2618.98C374.792 2618.98 358.292 2616.23 342.452 2610.73C326.832 2605.01 314.732 2597.75 306.152 2588.95L315.722 2570.14C323.862 2578.06 334.752 2584.77 348.392 2590.27C362.252 2595.55 376.772 2598.19 391.952 2598.19C406.472 2598.19 418.242 2596.43 427.262 2592.91C436.502 2589.17 443.212 2584.22 447.392 2578.06C451.792 2571.9 453.992 2565.08 453.992 2557.6C453.992 2548.58 451.352 2541.32 446.072 2535.82C441.012 2530.32 434.302 2526.03 425.942 2522.95C417.582 2519.65 408.342 2516.79 398.222 2514.37C388.102 2511.95 377.982 2509.42 367.862 2506.78C357.742 2503.92 348.392 2500.18 339.812 2495.56C331.452 2490.94 324.632 2484.89 319.352 2477.41C314.292 2469.71 311.762 2459.7 311.762 2447.38C311.762 2435.94 314.732 2425.49 320.672 2416.03C326.832 2406.35 336.182 2398.65 348.722 2392.93C361.262 2386.99 377.322 2384.02 396.902 2384.02C409.882 2384.02 422.752 2385.89 435.512 2389.63C448.272 2393.15 459.272 2398.1 468.512 2404.48L460.262 2423.95C450.362 2417.35 439.802 2412.51 428.582 2409.43C417.582 2406.35 406.912 2404.81 396.572 2404.81C382.712 2404.81 371.272 2406.68 362.252 2410.42C353.232 2414.16 346.522 2419.22 342.122 2425.6C337.942 2431.76 335.852 2438.8 335.852 2446.72C335.852 2455.74 338.382 2463 343.442 2468.5C348.722 2474 355.542 2478.29 363.902 2481.37C372.482 2484.45 381.832 2487.2 391.952 2489.62C402.072 2492.04 412.082 2494.68 421.982 2497.54C432.102 2500.4 441.342 2504.14 449.702 2508.76C458.282 2513.16 465.102 2519.1 470.162 2526.58C475.442 2534.06 478.082 2543.85 478.082 2555.95C478.082 2567.17 475.002 2577.62 468.842 2587.3C462.682 2596.76 453.222 2604.46 440.462 2610.4C427.922 2616.12 411.752 2618.98 391.952 2618.98ZM642.169 2618.98C624.789 2618.98 608.619 2616.12 593.659 2610.4C578.919 2604.46 566.049 2596.21 555.049 2585.65C544.269 2574.87 535.799 2562.44 529.639 2548.36C523.699 2534.06 520.729 2518.44 520.729 2501.5C520.729 2484.56 523.699 2469.05 529.639 2454.97C535.799 2440.67 544.269 2428.24 555.049 2417.68C566.049 2406.9 578.919 2398.65 593.659 2392.93C608.399 2386.99 624.569 2384.02 642.169 2384.02C659.549 2384.02 675.609 2386.99 690.349 2392.93C705.089 2398.65 717.849 2406.79 728.629 2417.35C739.629 2427.91 748.099 2440.34 754.039 2454.64C760.199 2468.94 763.279 2484.56 763.279 2501.5C763.279 2518.44 760.199 2534.06 754.039 2548.36C748.099 2562.66 739.629 2575.09 728.629 2585.65C717.849 2596.21 705.089 2604.46 690.349 2610.4C675.609 2616.12 659.549 2618.98 642.169 2618.98ZM642.169 2597.2C656.029 2597.2 668.789 2594.89 680.449 2590.27C692.329 2585.43 702.559 2578.72 711.139 2570.14C719.939 2561.34 726.759 2551.22 731.599 2539.78C736.439 2528.12 738.859 2515.36 738.859 2501.5C738.859 2487.64 736.439 2474.99 731.599 2463.55C726.759 2451.89 719.939 2441.77 711.139 2433.19C702.559 2424.39 692.329 2417.68 680.449 2413.06C668.789 2408.22 656.029 2405.8 642.169 2405.8C628.309 2405.8 615.439 2408.22 603.559 2413.06C591.679 2417.68 581.339 2424.39 572.539 2433.19C563.959 2441.77 557.139 2451.89 552.079 2463.55C547.239 2474.99 544.819 2487.64 544.819 2501.5C544.819 2515.14 547.239 2527.79 552.079 2539.45C557.139 2551.11 563.959 2561.34 572.539 2570.14C581.339 2578.72 591.679 2585.43 603.559 2590.27C615.439 2594.89 628.309 2597.2 642.169 2597.2ZM827.915 2617V2386H852.335V2595.88H981.695V2617H827.915ZM1121.01 2618.98C1091.53 2618.98 1068.32 2610.51 1051.38 2593.57C1034.44 2576.63 1025.97 2551.55 1025.97 2518.33V2386H1050.39V2517.34C1050.39 2544.62 1056.55 2564.75 1068.87 2577.73C1081.19 2590.71 1098.57 2597.2 1121.01 2597.2C1143.67 2597.2 1161.16 2590.71 1173.48 2577.73C1185.8 2564.75 1191.96 2544.62 1191.96 2517.34V2386H1215.72V2518.33C1215.72 2551.55 1207.25 2576.63 1190.31 2593.57C1173.59 2610.51 1150.49 2618.98 1121.01 2618.98ZM1399.53 2618.98C1382.15 2618.98 1366.09 2616.12 1351.35 2610.4C1336.61 2604.46 1323.85 2596.21 1313.07 2585.65C1302.29 2575.09 1293.82 2562.66 1287.66 2548.36C1281.72 2534.06 1278.75 2518.44 1278.75 2501.5C1278.75 2484.56 1281.72 2468.94 1287.66 2454.64C1293.82 2440.34 1302.29 2427.91 1313.07 2417.35C1324.07 2406.79 1336.94 2398.65 1351.68 2392.93C1366.42 2386.99 1382.48 2384.02 1399.86 2384.02C1416.58 2384.02 1432.31 2386.88 1447.05 2392.6C1461.79 2398.1 1474.22 2406.46 1484.34 2417.68L1468.83 2433.19C1459.37 2423.51 1448.92 2416.58 1437.48 2412.4C1426.04 2408 1413.72 2405.8 1400.52 2405.8C1386.66 2405.8 1373.79 2408.22 1361.91 2413.06C1350.03 2417.68 1339.69 2424.39 1330.89 2433.19C1322.09 2441.77 1315.16 2451.89 1310.1 2463.55C1305.26 2474.99 1302.84 2487.64 1302.84 2501.5C1302.84 2515.36 1305.26 2528.12 1310.1 2539.78C1315.16 2551.22 1322.09 2561.34 1330.89 2570.14C1339.69 2578.72 1350.03 2585.43 1361.91 2590.27C1373.79 2594.89 1386.66 2597.2 1400.52 2597.2C1413.72 2597.2 1426.04 2595 1437.48 2590.6C1448.92 2586.2 1459.37 2579.16 1468.83 2569.48L1484.34 2584.99C1474.22 2596.21 1461.79 2604.68 1447.05 2610.4C1432.31 2616.12 1416.47 2618.98 1399.53 2618.98ZM1387.65 2689.6C1382.15 2689.6 1377.09 2688.94 1372.47 2687.62C1368.07 2686.3 1363.89 2684.43 1359.93 2682.01L1365.54 2669.47C1368.84 2671.45 1372.25 2672.99 1375.77 2674.09C1379.51 2675.19 1383.36 2675.74 1387.32 2675.74C1393.92 2675.74 1398.98 2674.31 1402.5 2671.45C1406.02 2668.81 1407.78 2665.07 1407.78 2660.23C1407.78 2655.83 1406.02 2652.2 1402.5 2649.34C1399.2 2646.48 1394.14 2645.05 1387.32 2645.05H1379.73L1387.65 2615.02H1401.84L1396.89 2634.16C1405.91 2634.82 1412.84 2637.57 1417.68 2642.41C1422.52 2647.47 1424.94 2653.63 1424.94 2660.89C1424.94 2669.69 1421.42 2676.62 1414.38 2681.68C1407.56 2686.96 1398.65 2689.6 1387.65 2689.6ZM1642.44 2618.98C1625.06 2618.98 1608.89 2616.12 1593.93 2610.4C1579.19 2604.46 1566.32 2596.21 1555.32 2585.65C1544.54 2574.87 1536.07 2562.44 1529.91 2548.36C1523.97 2534.06 1521 2518.44 1521 2501.5C1521 2484.56 1523.97 2469.05 1529.91 2454.97C1536.07 2440.67 1544.54 2428.24 1555.32 2417.68C1566.32 2406.9 1579.19 2398.65 1593.93 2392.93C1608.67 2386.99 1624.84 2384.02 1642.44 2384.02C1659.82 2384.02 1675.88 2386.99 1690.62 2392.93C1705.36 2398.65 1718.12 2406.79 1728.9 2417.35C1739.9 2427.91 1748.37 2440.34 1754.31 2454.64C1760.47 2468.94 1763.55 2484.56 1763.55 2501.5C1763.55 2518.44 1760.47 2534.06 1754.31 2548.36C1748.37 2562.66 1739.9 2575.09 1728.9 2585.65C1718.12 2596.21 1705.36 2604.46 1690.62 2610.4C1675.88 2616.12 1659.82 2618.98 1642.44 2618.98ZM1642.44 2597.2C1656.3 2597.2 1669.06 2594.89 1680.72 2590.27C1692.6 2585.43 1702.83 2578.72 1711.41 2570.14C1720.21 2561.34 1727.03 2551.22 1731.87 2539.78C1736.71 2528.12 1739.13 2515.36 1739.13 2501.5C1739.13 2487.64 1736.71 2474.99 1731.87 2463.55C1727.03 2451.89 1720.21 2441.77 1711.41 2433.19C1702.83 2424.39 1692.6 2417.68 1680.72 2413.06C1669.06 2408.22 1656.3 2405.8 1642.44 2405.8C1628.58 2405.8 1615.71 2408.22 1603.83 2413.06C1591.95 2417.68 1581.61 2424.39 1572.81 2433.19C1564.23 2441.77 1557.41 2451.89 1552.35 2463.55C1547.51 2474.99 1545.09 2487.64 1545.09 2501.5C1545.09 2515.14 1547.51 2527.79 1552.35 2539.45C1557.41 2551.11 1564.23 2561.34 1572.81 2570.14C1581.61 2578.72 1591.95 2585.43 1603.83 2590.27C1615.71 2594.89 1628.58 2597.2 1642.44 2597.2ZM1664.88 2365.21C1659.82 2365.21 1655.31 2364.11 1651.35 2361.91C1647.39 2359.71 1643.76 2357.18 1640.46 2354.32C1637.38 2351.24 1634.3 2348.6 1631.22 2346.4C1628.14 2343.98 1624.95 2342.77 1621.65 2342.77C1616.59 2342.77 1612.52 2344.64 1609.44 2348.38C1606.58 2352.12 1604.93 2357.29 1604.49 2363.89H1590.3C1590.74 2352.89 1593.6 2344.09 1598.88 2337.49C1604.38 2330.89 1611.42 2327.59 1620 2327.59C1625.06 2327.59 1629.57 2328.8 1633.53 2331.22C1637.71 2333.42 1641.34 2336.06 1644.42 2339.14C1647.72 2342 1650.8 2344.53 1653.66 2346.73C1656.74 2348.93 1659.93 2350.03 1663.23 2350.03C1668.29 2350.03 1672.36 2348.27 1675.44 2344.75C1678.52 2341.01 1680.17 2335.95 1680.39 2329.57H1694.58C1694.36 2340.13 1691.5 2348.71 1686 2355.31C1680.5 2361.91 1673.46 2365.21 1664.88 2365.21ZM1849.97 2489.29H1972.07V2510.08H1849.97V2489.29ZM1852.61 2595.88H1991.54V2617H1828.19V2386H1986.59V2407.12H1852.61V2595.88ZM2122.53 2618.98C2105.37 2618.98 2088.87 2616.23 2073.03 2610.73C2057.41 2605.01 2045.31 2597.75 2036.73 2588.95L2046.3 2570.14C2054.44 2578.06 2065.33 2584.77 2078.97 2590.27C2092.83 2595.55 2107.35 2598.19 2122.53 2598.19C2137.05 2598.19 2148.82 2596.43 2157.84 2592.91C2167.08 2589.17 2173.79 2584.22 2177.97 2578.06C2182.37 2571.9 2184.57 2565.08 2184.57 2557.6C2184.57 2548.58 2181.93 2541.32 2176.65 2535.82C2171.59 2530.32 2164.88 2526.03 2156.52 2522.95C2148.16 2519.65 2138.92 2516.79 2128.8 2514.37C2118.68 2511.95 2108.56 2509.42 2098.44 2506.78C2088.32 2503.92 2078.97 2500.18 2070.39 2495.56C2062.03 2490.94 2055.21 2484.89 2049.93 2477.41C2044.87 2469.71 2042.34 2459.7 2042.34 2447.38C2042.34 2435.94 2045.31 2425.49 2051.25 2416.03C2057.41 2406.35 2066.76 2398.65 2079.3 2392.93C2091.84 2386.99 2107.9 2384.02 2127.48 2384.02C2140.46 2384.02 2153.33 2385.89 2166.09 2389.63C2178.85 2393.15 2189.85 2398.1 2199.09 2404.48L2190.84 2423.95C2180.94 2417.35 2170.38 2412.51 2159.16 2409.43C2148.16 2406.35 2137.49 2404.81 2127.15 2404.81C2113.29 2404.81 2101.85 2406.68 2092.83 2410.42C2083.81 2414.16 2077.1 2419.22 2072.7 2425.6C2068.52 2431.76 2066.43 2438.8 2066.43 2446.72C2066.43 2455.74 2068.96 2463 2074.02 2468.5C2079.3 2474 2086.12 2478.29 2094.48 2481.37C2103.06 2484.45 2112.41 2487.2 2122.53 2489.62C2132.65 2492.04 2142.66 2494.68 2152.56 2497.54C2162.68 2500.4 2171.92 2504.14 2180.28 2508.76C2188.86 2513.16 2195.68 2519.1 2200.74 2526.58C2206.02 2534.06 2208.66 2543.85 2208.66 2555.95C2208.66 2567.17 2205.58 2577.62 2199.42 2587.3C2193.26 2596.76 2183.8 2604.46 2171.04 2610.4C2158.5 2616.12 2142.33 2618.98 2122.53 2618.98ZM2424.14 2618.98C2409.18 2618.98 2395.87 2616.56 2384.21 2611.72C2372.55 2606.66 2363.31 2599.73 2356.49 2590.93C2349.89 2582.13 2346.59 2571.9 2346.59 2560.24C2346.59 2550.34 2348.79 2541.32 2353.19 2533.18C2357.59 2524.82 2364.63 2516.68 2374.31 2508.76C2384.21 2500.62 2397.3 2492.15 2413.58 2483.35C2427.44 2475.65 2438.22 2469.05 2445.92 2463.55C2453.84 2457.83 2459.45 2452.44 2462.75 2447.38C2466.05 2442.1 2467.7 2436.49 2467.7 2430.55C2467.7 2421.97 2464.73 2415.04 2458.79 2409.76C2453.07 2404.48 2444.82 2401.84 2434.04 2401.84C2422.38 2401.84 2413.36 2404.81 2406.98 2410.75C2400.6 2416.47 2397.41 2423.95 2397.41 2433.19C2397.41 2437.81 2398.07 2442.21 2399.39 2446.39C2400.93 2450.57 2403.68 2455.19 2407.64 2460.25C2411.82 2465.31 2417.54 2471.69 2424.8 2479.39L2546.9 2605.12L2533.37 2620.63L2405.99 2489.62C2398.29 2481.48 2392.13 2474.44 2387.51 2468.5C2383.11 2462.34 2380.03 2456.51 2378.27 2451.01C2376.51 2445.51 2375.63 2439.68 2375.63 2433.52C2375.63 2423.62 2377.94 2415.04 2382.56 2407.78C2387.4 2400.3 2394.22 2394.58 2403.02 2390.62C2411.82 2386.44 2422.16 2384.35 2434.04 2384.35C2444.82 2384.35 2454.17 2386.22 2462.09 2389.96C2470.23 2393.48 2476.5 2398.65 2480.9 2405.47C2485.52 2412.29 2487.83 2420.54 2487.83 2430.22C2487.83 2438.58 2485.74 2446.39 2481.56 2453.65C2477.6 2460.91 2471 2468.06 2461.76 2475.1C2452.52 2481.92 2439.98 2489.62 2424.14 2498.2C2410.28 2505.9 2399.28 2512.94 2391.14 2519.32C2383.22 2525.7 2377.61 2531.97 2374.31 2538.13C2371.01 2544.07 2369.36 2550.67 2369.36 2557.93C2369.36 2566.29 2371.67 2573.66 2376.29 2580.04C2381.13 2586.2 2387.73 2591.04 2396.09 2594.56C2404.67 2597.86 2414.46 2599.51 2425.46 2599.51C2440.86 2599.51 2454.61 2596.32 2466.71 2589.94C2478.81 2583.56 2488.93 2573.88 2497.07 2560.9C2505.43 2547.92 2511.48 2531.64 2515.22 2512.06L2534.03 2518C2529.85 2540 2522.7 2558.48 2512.58 2573.44C2502.46 2588.4 2489.92 2599.73 2474.96 2607.43C2460 2615.13 2443.06 2618.98 2424.14 2618.98ZM2694.95 2617V2386H2719.37V2617H2694.95ZM2767.47 2617L2873.07 2386H2897.16L3002.76 2617H2977.02L2880 2400.19H2889.9L2792.88 2617H2767.47ZM2809.05 2555.29L2816.31 2535.49H2950.62L2957.88 2555.29H2809.05Z" fill="#141C4D"/>
</svg>
